<svg xmlns="http://www.w3.org/2000/svg" viewBox="0 0 1500 470" width="1500" height="470">
<defs>
<linearGradient id="sky" x1="0" y1="0" x2="0" y2="1">
<stop offset="0" stop-color="#e7eedd"/><stop offset="1" stop-color="#dde8cf"/>
</linearGradient>
<clipPath id="lpclip"><rect x="70" y="168" width="470" height="222" rx="18"/></clipPath>
</defs>

<rect width="1500" height="470" fill="url(#sky)"/>
<path d="M0,300 Q 380,250 760,295 T 1500,290 V470 H0 Z" fill="#cfe0ad"/>
<path d="M0,360 Q 400,320 820,360 T 1500,350 V470 H0 Z" fill="#b6d189"/>
<g fill="#fbfcf5" opacity="0.9"><circle cx="202.0" cy="101.0" r="30.0"/><circle cx="229.0" cy="86.0" r="39.0"/><circle cx="262.0" cy="83.0" r="42.0"/><circle cx="292.0" cy="92.0" r="33.0"/><circle cx="268.0" cy="104.0" r="36.0"/><circle cx="244.0" cy="104.0" r="39.0"/></g>
<g fill="#fbfcf5" opacity="0.9"><circle cx="1125.6" cy="86.8" r="34.0"/><circle cx="1156.2" cy="69.8" r="44.2"/><circle cx="1193.6" cy="66.4" r="47.6"/><circle cx="1227.6" cy="76.6" r="37.4"/><circle cx="1200.4" cy="90.2" r="40.8"/><circle cx="1173.2" cy="90.2" r="44.2"/></g>
<g fill="#fbfcf5" opacity="0.9"><circle cx="724.8" cy="64.4" r="22.0"/><circle cx="744.6" cy="53.4" r="28.6"/><circle cx="768.8" cy="51.2" r="30.8"/><circle cx="790.8" cy="57.8" r="24.2"/><circle cx="773.2" cy="66.6" r="26.4"/><circle cx="755.6" cy="66.6" r="28.6"/></g>
<g stroke="#86a35a" stroke-width="2" fill="none" stroke-linecap="round" opacity="0.45"><path d="M493,457 q -3,-11 -1,-14"/><path d="M493,457 q 3,-11 1,-14"/><path d="M126,462 q -3,-9 -1,-12"/><path d="M126,462 q 3,-9 1,-12"/><path d="M105,462 q -3,-6 -1,-9"/><path d="M105,462 q 3,-6 1,-9"/><path d="M653,456 q -3,-7 -1,-10"/><path d="M653,456 q 3,-7 1,-10"/><path d="M640,466 q -3,-7 -1,-10"/><path d="M640,466 q 3,-7 1,-10"/><path d="M346,463 q -3,-14 -1,-17"/><path d="M346,463 q 3,-14 1,-17"/><path d="M863,460 q -3,-14 -1,-17"/><path d="M863,460 q 3,-14 1,-17"/><path d="M88,466 q -3,-8 -1,-11"/><path d="M88,466 q 3,-8 1,-11"/><path d="M231,457 q -3,-8 -1,-11"/><path d="M231,457 q 3,-8 1,-11"/><path d="M1212,457 q -3,-11 -1,-14"/><path d="M1212,457 q 3,-11 1,-14"/><path d="M953,460 q -3,-10 -1,-13"/><path d="M953,460 q 3,-10 1,-13"/><path d="M112,456 q -3,-8 -1,-11"/><path d="M112,456 q 3,-8 1,-11"/><path d="M1013,461 q -3,-9 -1,-12"/><path d="M1013,461 q 3,-9 1,-12"/><path d="M875,461 q -3,-8 -1,-11"/><path d="M875,461 q 3,-8 1,-11"/><path d="M1180,464 q -3,-8 -1,-11"/><path d="M1180,464 q 3,-8 1,-11"/><path d="M859,462 q -3,-13 -1,-16"/><path d="M859,462 q 3,-13 1,-16"/><path d="M1085,459 q -3,-14 -1,-17"/><path d="M1085,459 q 3,-14 1,-17"/><path d="M192,460 q -3,-12 -1,-15"/><path d="M192,460 q 3,-12 1,-15"/><path d="M242,461 q -3,-6 -1,-9"/><path d="M242,461 q 3,-6 1,-9"/><path d="M996,465 q -3,-11 -1,-14"/><path d="M996,465 q 3,-11 1,-14"/><path d="M1298,459 q -3,-12 -1,-15"/><path d="M1298,459 q 3,-12 1,-15"/><path d="M888,463 q -3,-10 -1,-13"/><path d="M888,463 q 3,-10 1,-13"/><path d="M1246,467 q -3,-10 -1,-13"/><path d="M1246,467 q 3,-10 1,-13"/><path d="M990,456 q -3,-12 -1,-15"/><path d="M990,456 q 3,-12 1,-15"/><path d="M965,468 q -3,-13 -1,-16"/><path d="M965,468 q 3,-13 1,-16"/><path d="M436,460 q -3,-11 -1,-14"/><path d="M436,460 q 3,-11 1,-14"/><path d="M53,461 q -3,-7 -1,-10"/><path d="M53,461 q 3,-7 1,-10"/><path d="M191,456 q -3,-12 -1,-15"/><path d="M191,456 q 3,-12 1,-15"/><path d="M209,458 q -3,-9 -1,-12"/><path d="M209,458 q 3,-9 1,-12"/><path d="M1292,456 q -3,-10 -1,-13"/><path d="M1292,456 q 3,-10 1,-13"/><path d="M822,466 q -3,-13 -1,-16"/><path d="M822,466 q 3,-13 1,-16"/><path d="M1281,459 q -3,-9 -1,-12"/><path d="M1281,459 q 3,-9 1,-12"/><path d="M544,466 q -3,-14 -1,-17"/><path d="M544,466 q 3,-14 1,-17"/><path d="M240,457 q -3,-8 -1,-11"/><path d="M240,457 q 3,-8 1,-11"/><path d="M361,461 q -3,-11 -1,-14"/><path d="M361,461 q 3,-11 1,-14"/><path d="M404,455 q -3,-9 -1,-12"/><path d="M404,455 q 3,-9 1,-12"/><path d="M559,462 q -3,-14 -1,-17"/><path d="M559,462 q 3,-14 1,-17"/><path d="M1028,462 q -3,-11 -1,-14"/><path d="M1028,462 q 3,-11 1,-14"/><path d="M1007,456 q -3,-13 -1,-16"/><path d="M1007,456 q 3,-13 1,-16"/><path d="M1159,466 q -3,-12 -1,-15"/><path d="M1159,466 q 3,-12 1,-15"/><path d="M593,460 q -3,-7 -1,-10"/><path d="M593,460 q 3,-7 1,-10"/><path d="M946,456 q -3,-7 -1,-10"/><path d="M946,456 q 3,-7 1,-10"/><path d="M325,457 q -3,-9 -1,-12"/><path d="M325,457 q 3,-9 1,-12"/><path d="M97,455 q -3,-7 -1,-10"/><path d="M97,455 q 3,-7 1,-10"/><path d="M168,460 q -3,-6 -1,-9"/><path d="M168,460 q 3,-6 1,-9"/><path d="M1297,463 q -3,-7 -1,-10"/><path d="M1297,463 q 3,-7 1,-10"/><path d="M388,460 q -3,-9 -1,-12"/><path d="M388,460 q 3,-9 1,-12"/><path d="M199,466 q -3,-14 -1,-17"/><path d="M199,466 q 3,-14 1,-17"/><path d="M700,461 q -3,-7 -1,-10"/><path d="M700,461 q 3,-7 1,-10"/><path d="M169,459 q -3,-8 -1,-11"/><path d="M169,459 q 3,-8 1,-11"/><path d="M1230,457 q -3,-6 -1,-9"/><path d="M1230,457 q 3,-6 1,-9"/><path d="M1408,462 q -3,-7 -1,-10"/><path d="M1408,462 q 3,-7 1,-10"/><path d="M813,455 q -3,-10 -1,-13"/><path d="M813,455 q 3,-10 1,-13"/><path d="M1449,466 q -3,-12 -1,-15"/><path d="M1449,466 q 3,-12 1,-15"/><path d="M401,460 q -3,-7 -1,-10"/><path d="M401,460 q 3,-7 1,-10"/><path d="M1147,462 q -3,-12 -1,-15"/><path d="M1147,462 q 3,-12 1,-15"/><path d="M501,458 q -3,-12 -1,-15"/><path d="M501,458 q 3,-12 1,-15"/><path d="M1458,466 q -3,-12 -1,-15"/><path d="M1458,466 q 3,-12 1,-15"/><path d="M1215,465 q -3,-8 -1,-11"/><path d="M1215,465 q 3,-8 1,-11"/><path d="M776,460 q -3,-6 -1,-9"/><path d="M776,460 q 3,-6 1,-9"/><path d="M61,459 q -3,-8 -1,-11"/><path d="M61,459 q 3,-8 1,-11"/><path d="M1031,467 q -3,-10 -1,-13"/><path d="M1031,467 q 3,-10 1,-13"/><path d="M1388,468 q -3,-14 -1,-17"/><path d="M1388,468 q 3,-14 1,-17"/><path d="M552,458 q -3,-8 -1,-11"/><path d="M552,458 q 3,-8 1,-11"/><path d="M307,458 q -3,-11 -1,-14"/><path d="M307,458 q 3,-11 1,-14"/><path d="M1334,466 q -3,-10 -1,-13"/><path d="M1334,466 q 3,-10 1,-13"/><path d="M973,465 q -3,-7 -1,-10"/><path d="M973,465 q 3,-7 1,-10"/><path d="M984,467 q -3,-12 -1,-15"/><path d="M984,467 q 3,-12 1,-15"/><path d="M1115,461 q -3,-7 -1,-10"/><path d="M1115,461 q 3,-7 1,-10"/><path d="M1172,459 q -3,-12 -1,-15"/><path d="M1172,459 q 3,-12 1,-15"/><path d="M1439,460 q -3,-9 -1,-12"/><path d="M1439,460 q 3,-9 1,-12"/><path d="M1402,464 q -3,-7 -1,-10"/><path d="M1402,464 q 3,-7 1,-10"/><path d="M205,457 q -3,-13 -1,-16"/><path d="M205,457 q 3,-13 1,-16"/><path d="M1197,457 q -3,-13 -1,-16"/><path d="M1197,457 q 3,-13 1,-16"/><path d="M1451,464 q -3,-9 -1,-12"/><path d="M1451,464 q 3,-9 1,-12"/><path d="M821,457 q -3,-6 -1,-9"/><path d="M821,457 q 3,-6 1,-9"/><path d="M1437,463 q -3,-10 -1,-13"/><path d="M1437,463 q 3,-10 1,-13"/><path d="M1383,461 q -3,-13 -1,-16"/><path d="M1383,461 q 3,-13 1,-16"/><path d="M1226,458 q -3,-8 -1,-11"/><path d="M1226,458 q 3,-8 1,-11"/><path d="M448,458 q -3,-11 -1,-14"/><path d="M448,458 q 3,-11 1,-14"/><path d="M399,460 q -3,-7 -1,-10"/><path d="M399,460 q 3,-7 1,-10"/><path d="M1349,460 q -3,-10 -1,-13"/><path d="M1349,460 q 3,-10 1,-13"/><path d="M872,467 q -3,-9 -1,-12"/><path d="M872,467 q 3,-9 1,-12"/><path d="M1360,462 q -3,-10 -1,-13"/><path d="M1360,462 q 3,-10 1,-13"/><path d="M784,455 q -3,-10 -1,-13"/><path d="M784,455 q 3,-10 1,-13"/><path d="M287,455 q -3,-12 -1,-15"/><path d="M287,455 q 3,-12 1,-15"/><path d="M272,461 q -3,-12 -1,-15"/><path d="M272,461 q 3,-12 1,-15"/><path d="M832,459 q -3,-10 -1,-13"/><path d="M832,459 q 3,-10 1,-13"/><path d="M831,465 q -3,-7 -1,-10"/><path d="M831,465 q 3,-7 1,-10"/><path d="M838,458 q -3,-8 -1,-11"/><path d="M838,458 q 3,-8 1,-11"/></g>
<g stroke="#86a35a" stroke-width="2" fill="none" stroke-linecap="round" opacity="0.35"><path d="M1148,439 q -3,-10 -1,-13"/><path d="M1148,439 q 3,-10 1,-13"/><path d="M1130,446 q -3,-10 -1,-13"/><path d="M1130,446 q 3,-10 1,-13"/><path d="M914,439 q -3,-10 -1,-13"/><path d="M914,439 q 3,-10 1,-13"/><path d="M1031,438 q -3,-10 -1,-13"/><path d="M1031,438 q 3,-10 1,-13"/><path d="M718,447 q -3,-12 -1,-15"/><path d="M718,447 q 3,-12 1,-15"/><path d="M1300,447 q -3,-8 -1,-11"/><path d="M1300,447 q 3,-8 1,-11"/><path d="M837,447 q -3,-13 -1,-16"/><path d="M837,447 q 3,-13 1,-16"/><path d="M220,432 q -3,-10 -1,-13"/><path d="M220,432 q 3,-10 1,-13"/><path d="M126,434 q -3,-7 -1,-10"/><path d="M126,434 q 3,-7 1,-10"/><path d="M997,444 q -3,-13 -1,-16"/><path d="M997,444 q 3,-13 1,-16"/><path d="M245,443 q -3,-11 -1,-14"/><path d="M245,443 q 3,-11 1,-14"/><path d="M229,446 q -3,-14 -1,-17"/><path d="M229,446 q 3,-14 1,-17"/><path d="M341,447 q -3,-9 -1,-12"/><path d="M341,447 q 3,-9 1,-12"/><path d="M731,448 q -3,-13 -1,-16"/><path d="M731,448 q 3,-13 1,-16"/><path d="M256,438 q -3,-10 -1,-13"/><path d="M256,438 q 3,-10 1,-13"/><path d="M515,434 q -3,-9 -1,-12"/><path d="M515,434 q 3,-9 1,-12"/><path d="M1074,430 q -3,-10 -1,-13"/><path d="M1074,430 q 3,-10 1,-13"/><path d="M663,430 q -3,-9 -1,-12"/><path d="M663,430 q 3,-9 1,-12"/><path d="M931,439 q -3,-7 -1,-10"/><path d="M931,439 q 3,-7 1,-10"/><path d="M1458,444 q -3,-14 -1,-17"/><path d="M1458,444 q 3,-14 1,-17"/><path d="M173,435 q -3,-6 -1,-9"/><path d="M173,435 q 3,-6 1,-9"/><path d="M1157,435 q -3,-7 -1,-10"/><path d="M1157,435 q 3,-7 1,-10"/><path d="M636,446 q -3,-13 -1,-16"/><path d="M636,446 q 3,-13 1,-16"/><path d="M398,433 q -3,-13 -1,-16"/><path d="M398,433 q 3,-13 1,-16"/><path d="M853,443 q -3,-7 -1,-10"/><path d="M853,443 q 3,-7 1,-10"/><path d="M104,442 q -3,-9 -1,-12"/><path d="M104,442 q 3,-9 1,-12"/><path d="M126,447 q -3,-11 -1,-14"/><path d="M126,447 q 3,-11 1,-14"/><path d="M1190,432 q -3,-13 -1,-16"/><path d="M1190,432 q 3,-13 1,-16"/><path d="M117,446 q -3,-10 -1,-13"/><path d="M117,446 q 3,-10 1,-13"/><path d="M515,440 q -3,-13 -1,-16"/><path d="M515,440 q 3,-13 1,-16"/><path d="M411,432 q -3,-10 -1,-13"/><path d="M411,432 q 3,-10 1,-13"/><path d="M368,432 q -3,-7 -1,-10"/><path d="M368,432 q 3,-7 1,-10"/><path d="M94,434 q -3,-8 -1,-11"/><path d="M94,434 q 3,-8 1,-11"/><path d="M465,444 q -3,-8 -1,-11"/><path d="M465,444 q 3,-8 1,-11"/><path d="M750,433 q -3,-9 -1,-12"/><path d="M750,433 q 3,-9 1,-12"/><path d="M47,435 q -3,-6 -1,-9"/><path d="M47,435 q 3,-6 1,-9"/><path d="M1090,440 q -3,-8 -1,-11"/><path d="M1090,440 q 3,-8 1,-11"/><path d="M713,447 q -3,-7 -1,-10"/><path d="M713,447 q 3,-7 1,-10"/><path d="M1216,438 q -3,-10 -1,-13"/><path d="M1216,438 q 3,-10 1,-13"/><path d="M1239,437 q -3,-10 -1,-13"/><path d="M1239,437 q 3,-10 1,-13"/><path d="M1024,448 q -3,-9 -1,-12"/><path d="M1024,448 q 3,-9 1,-12"/><path d="M1235,443 q -3,-11 -1,-14"/><path d="M1235,443 q 3,-11 1,-14"/><path d="M611,436 q -3,-6 -1,-9"/><path d="M611,436 q 3,-6 1,-9"/><path d="M210,431 q -3,-12 -1,-15"/><path d="M210,431 q 3,-12 1,-15"/><path d="M393,433 q -3,-7 -1,-10"/><path d="M393,433 q 3,-7 1,-10"/><path d="M1248,446 q -3,-11 -1,-14"/><path d="M1248,446 q 3,-11 1,-14"/><path d="M432,434 q -3,-8 -1,-11"/><path d="M432,434 q 3,-8 1,-11"/><path d="M691,433 q -3,-10 -1,-13"/><path d="M691,433 q 3,-10 1,-13"/><path d="M404,447 q -3,-14 -1,-17"/><path d="M404,447 q 3,-14 1,-17"/><path d="M819,434 q -3,-14 -1,-17"/><path d="M819,434 q 3,-14 1,-17"/><path d="M472,436 q -3,-6 -1,-9"/><path d="M472,436 q 3,-6 1,-9"/><path d="M577,439 q -3,-10 -1,-13"/><path d="M577,439 q 3,-10 1,-13"/><path d="M313,439 q -3,-6 -1,-9"/><path d="M313,439 q 3,-6 1,-9"/><path d="M406,432 q -3,-9 -1,-12"/><path d="M406,432 q 3,-9 1,-12"/><path d="M81,430 q -3,-8 -1,-11"/><path d="M81,430 q 3,-8 1,-11"/><path d="M360,441 q -3,-10 -1,-13"/><path d="M360,441 q 3,-10 1,-13"/><path d="M1116,442 q -3,-12 -1,-15"/><path d="M1116,442 q 3,-12 1,-15"/><path d="M1303,437 q -3,-9 -1,-12"/><path d="M1303,437 q 3,-9 1,-12"/><path d="M1458,433 q -3,-12 -1,-15"/><path d="M1458,433 q 3,-12 1,-15"/><path d="M959,431 q -3,-13 -1,-16"/><path d="M959,431 q 3,-13 1,-16"/></g>

<rect x="40" y="30" width="1420" height="412" rx="28" fill="#f2f4e7" stroke="#a9bd85" stroke-width="2.5"/>
<path d="M40,88 V58 Q40,30 68,30 H1432 Q1460,30 1460,58 V88 Z" fill="#c6d6a4"/>
<line x1="40" y1="118" x2="1460" y2="118" stroke="#a9bd85" stroke-width="1.5"/>
<line x1="40" y1="180" x2="1460" y2="180" stroke="#a9bd85" stroke-width="1.5"/>
<path d="M64,88 V64 Q64,52 76,52 H156 Q168,52 168,64 V88 Z" fill="#f2f4e7" stroke="#a9bd85" stroke-width="1.2"/><text x="116" y="77" text-anchor="middle" font-family="Fredoka, sans-serif" font-size="21" font-weight="500" fill="#677d40">home</text><path d="M176,88 V64 Q176,52 188,52 H283 Q295,52 295,64 V88 Z" fill="#bccf98" stroke="#a9bd85" stroke-width="1.2"/><text x="236" y="77" text-anchor="middle" font-family="Fredoka, sans-serif" font-size="21" font-weight="500" fill="#6f8049">works</text><path d="M303,88 V64 Q303,52 315,52 H410 Q422,52 422,64 V88 Z" fill="#bccf98" stroke="#a9bd85" stroke-width="1.2"/><text x="362" y="77" text-anchor="middle" font-family="Fredoka, sans-serif" font-size="21" font-weight="500" fill="#6f8049">about</text>
<circle cx="1310" cy="60" r="16" fill="#f2f4e7" stroke="#a9bd85" stroke-width="1.3"/><line x1="1303" y1="60" x2="1317" y2="60" stroke="#677d40" stroke-width="2.4" stroke-linecap="round"/><circle cx="1358" cy="60" r="16" fill="#f2f4e7" stroke="#a9bd85" stroke-width="1.3"/><rect x="1352" y="54" width="12" height="12" rx="2.5" fill="none" stroke="#677d40" stroke-width="2.2"/><circle cx="1406" cy="60" r="16" fill="#f2f4e7" stroke="#a9bd85" stroke-width="1.3"/><path d="M1400,54 L1412,66 M1412,54 L1400,66" stroke="#677d40" stroke-width="2.4" stroke-linecap="round"/>
<circle cx="90" cy="148" r="19" fill="#c6d6a4" stroke="#a9bd85" stroke-width="1.2"/><path d="M94,141 L85,148 L94,155" stroke="#677d40" stroke-width="2.4" fill="none" stroke-linecap="round" stroke-linejoin="round"/><circle cx="142" cy="148" r="19" fill="#c6d6a4" stroke="#a9bd85" stroke-width="1.2"/><path d="M138,141 L147,148 L138,155" stroke="#677d40" stroke-width="2.4" fill="none" stroke-linecap="round" stroke-linejoin="round"/><circle cx="194" cy="148" r="19" fill="#c6d6a4" stroke="#a9bd85" stroke-width="1.2"/><path d="M201,146 A7,7 0 1 0 200,153" stroke="#677d40" stroke-width="2.2" fill="none" stroke-linecap="round"/><path d="M201,140 L202,147 L195,146" fill="#677d40"/><circle cx="246" cy="148" r="19" fill="#c6d6a4" stroke="#a9bd85" stroke-width="1.2"/><path d="M246,140 L238,148 L241,148 L241,155 L251,155 L251,148 L254,148 Z" fill="#677d40"/>
<rect x="310" y="128" width="820" height="40" rx="20.0" fill="#fbfcf5" stroke="#a9bd85" stroke-width="1.3"/><circle cx="344" cy="148.0" r="7" fill="none" stroke="#86995c" stroke-width="2"/><line x1="350" y1="153.0" x2="356" y2="159.0" stroke="#86995c" stroke-width="2" stroke-linecap="round"/><text x="372" y="154.0" font-family="Quicksand, sans-serif" font-size="20" font-weight="500" fill="#86995c">https://jirodavid.dev</text><circle cx="1410" cy="148" r="19" fill="#c6d6a4" stroke="#a9bd85" stroke-width="1.2"/><line x1="1403" y1="143" x2="1417" y2="143" stroke="#677d40" stroke-width="2.2" stroke-linecap="round"/><line x1="1403" y1="148" x2="1417" y2="148" stroke="#677d40" stroke-width="2.2" stroke-linecap="round"/><line x1="1403" y1="153" x2="1417" y2="153" stroke="#677d40" stroke-width="2.2" stroke-linecap="round"/>
<rect x="70" y="168" width="470" height="222" rx="18" fill="#dbe8c2" stroke="#a9bd85" stroke-width="1.6"/><path d="M70,318 Q 220,288 330,318 T 540,318 V 390 H 70 Z" fill="#b6d189" opacity="0.7" clip-path="url(#lpclip)"/><g><circle cx="140.0" cy="222.0" r="9.9" fill="#f5f0e1" stroke="#a9bd85" stroke-width="1"/><circle cx="155.2" cy="233.1" r="9.9" fill="#f5f0e1" stroke="#a9bd85" stroke-width="1"/><circle cx="149.4" cy="250.9" r="9.9" fill="#f5f0e1" stroke="#a9bd85" stroke-width="1"/><circle cx="130.6" cy="250.9" r="9.9" fill="#f5f0e1" stroke="#a9bd85" stroke-width="1"/><circle cx="124.8" cy="233.1" r="9.9" fill="#f5f0e1" stroke="#a9bd85" stroke-width="1"/><circle cx="140" cy="238" r="8.8" fill="#e9c66f"/></g><g><circle cx="470.0" cy="212.0" r="8.7" fill="#f5f0e1" stroke="#a9bd85" stroke-width="1"/><circle cx="483.3" cy="221.7" r="8.7" fill="#f5f0e1" stroke="#a9bd85" stroke-width="1"/><circle cx="478.2" cy="237.3" r="8.7" fill="#f5f0e1" stroke="#a9bd85" stroke-width="1"/><circle cx="461.8" cy="237.3" r="8.7" fill="#f5f0e1" stroke="#a9bd85" stroke-width="1"/><circle cx="456.7" cy="221.7" r="8.7" fill="#f5f0e1" stroke="#a9bd85" stroke-width="1"/><circle cx="470" cy="226" r="7.7" fill="#e9c66f"/></g><g><circle cx="130.0" cy="320.0" r="8.1" fill="#f5f0e1" stroke="#a9bd85" stroke-width="1"/><circle cx="142.4" cy="329.0" r="8.1" fill="#f5f0e1" stroke="#a9bd85" stroke-width="1"/><circle cx="137.6" cy="343.5" r="8.1" fill="#f5f0e1" stroke="#a9bd85" stroke-width="1"/><circle cx="122.4" cy="343.5" r="8.1" fill="#f5f0e1" stroke="#a9bd85" stroke-width="1"/><circle cx="117.6" cy="329.0" r="8.1" fill="#f5f0e1" stroke="#a9bd85" stroke-width="1"/><circle cx="130" cy="333" r="7.2" fill="#e9c66f"/></g><g transform="translate(468,318)"><g transform="rotate(45) scale(17)"><path d="M0,0 C -0.9,-0.55 -0.45,-1.2 0,-0.72 C 0.45,-1.2 0.9,-0.55 0,0 Z" fill="#8fae5d" stroke="#7d9d57" stroke-width="0.05"/></g><g transform="rotate(135) scale(17)"><path d="M0,0 C -0.9,-0.55 -0.45,-1.2 0,-0.72 C 0.45,-1.2 0.9,-0.55 0,0 Z" fill="#8fae5d" stroke="#7d9d57" stroke-width="0.05"/></g><g transform="rotate(225) scale(17)"><path d="M0,0 C -0.9,-0.55 -0.45,-1.2 0,-0.72 C 0.45,-1.2 0.9,-0.55 0,0 Z" fill="#8fae5d" stroke="#7d9d57" stroke-width="0.05"/></g><g transform="rotate(315) scale(17)"><path d="M0,0 C -0.9,-0.55 -0.45,-1.2 0,-0.72 C 0.45,-1.2 0.9,-0.55 0,0 Z" fill="#8fae5d" stroke="#7d9d57" stroke-width="0.05"/></g><path d="M0,2 q -8.5,27.2 3.4,40.8" stroke="#7d9d57" stroke-width="2.2" fill="none"/></g><g><ellipse cx="267.2" cy="322.8" rx="15.1" ry="11.5" fill="#eee7d2" stroke="#7d9d57" stroke-width="1.5"/><ellipse cx="342.8" cy="322.8" rx="15.1" ry="11.5" fill="#eee7d2" stroke="#7d9d57" stroke-width="1.5"/><ellipse cx="276.2" cy="290.4" rx="15.1" ry="11.5" fill="#eee7d2" stroke="#7d9d57" stroke-width="1.5"/><ellipse cx="339.2" cy="295.8" rx="15.1" ry="11.5" fill="#eee7d2" stroke="#7d9d57" stroke-width="1.5"/><circle cx="357.2" cy="301.2" r="18.0" fill="#eee7d2" stroke="#7d9d57" stroke-width="1.5"/><circle cx="363.7" cy="298.7" r="2.5" fill="#677d40"/><path d="M359.0,307.3 q 4.3,2.9 8.6,0" stroke="#677d40" stroke-width="1.3" fill="none" stroke-linecap="round"/><ellipse cx="305.0" cy="303.0" rx="46.8" ry="33.1" fill="#9cbf72" stroke="#7d9d57" stroke-width="2.4"/><ellipse cx="305.0" cy="303.0" rx="22.3" ry="16.6" fill="#7d9d57" opacity="0.45"/><line x1="305.0" y1="286.4" x2="305.0" y2="271.3" stroke="#7d9d57" stroke-width="1.6" opacity="0.6"/><line x1="326.2" y1="297.9" x2="347.8" y2="293.2" stroke="#7d9d57" stroke-width="1.6" opacity="0.6"/><line x1="318.1" y1="316.4" x2="331.5" y2="328.6" stroke="#7d9d57" stroke-width="1.6" opacity="0.6"/><line x1="291.9" y1="316.4" x2="278.5" y2="328.6" stroke="#7d9d57" stroke-width="1.6" opacity="0.6"/><line x1="283.8" y1="297.9" x2="262.2" y2="293.2" stroke="#7d9d57" stroke-width="1.6" opacity="0.6"/></g><g stroke="#86a35a" stroke-width="2" fill="none" stroke-linecap="round" opacity="0.5"><path d="M481,384 q -3,-12 -1,-15"/><path d="M481,384 q 3,-12 1,-15"/><path d="M445,381 q -3,-10 -1,-13"/><path d="M445,381 q 3,-10 1,-13"/><path d="M307,385 q -3,-12 -1,-15"/><path d="M307,385 q 3,-12 1,-15"/><path d="M452,384 q -3,-13 -1,-16"/><path d="M452,384 q 3,-13 1,-16"/><path d="M387,384 q -3,-8 -1,-11"/><path d="M387,384 q 3,-8 1,-11"/><path d="M94,381 q -3,-9 -1,-12"/><path d="M94,381 q 3,-9 1,-12"/><path d="M127,385 q -3,-10 -1,-13"/><path d="M127,385 q 3,-10 1,-13"/><path d="M362,384 q -3,-11 -1,-14"/><path d="M362,384 q 3,-11 1,-14"/><path d="M300,380 q -3,-12 -1,-15"/><path d="M300,380 q 3,-12 1,-15"/><path d="M417,383 q -3,-10 -1,-13"/><path d="M417,383 q 3,-10 1,-13"/><path d="M377,380 q -3,-12 -1,-15"/><path d="M377,380 q 3,-12 1,-15"/><path d="M193,380 q -3,-8 -1,-11"/><path d="M193,380 q 3,-8 1,-11"/><path d="M408,381 q -3,-12 -1,-15"/><path d="M408,381 q 3,-12 1,-15"/><path d="M519,383 q -3,-9 -1,-12"/><path d="M519,383 q 3,-9 1,-12"/><path d="M296,384 q -3,-12 -1,-15"/><path d="M296,384 q 3,-12 1,-15"/><path d="M358,384 q -3,-7 -1,-10"/><path d="M358,384 q 3,-7 1,-10"/><path d="M146,382 q -3,-12 -1,-15"/><path d="M146,382 q 3,-12 1,-15"/><path d="M217,383 q -3,-6 -1,-9"/><path d="M217,383 q 3,-6 1,-9"/><path d="M107,382 q -3,-11 -1,-14"/><path d="M107,382 q 3,-11 1,-14"/><path d="M391,384 q -3,-8 -1,-11"/><path d="M391,384 q 3,-8 1,-11"/><path d="M312,383 q -3,-10 -1,-13"/><path d="M312,383 q 3,-10 1,-13"/><path d="M133,385 q -3,-8 -1,-11"/><path d="M133,385 q 3,-8 1,-11"/><path d="M520,386 q -3,-6 -1,-9"/><path d="M520,386 q 3,-6 1,-9"/><path d="M287,385 q -3,-14 -1,-17"/><path d="M287,385 q 3,-14 1,-17"/><path d="M282,382 q -3,-8 -1,-11"/><path d="M282,382 q 3,-8 1,-11"/><path d="M506,381 q -3,-11 -1,-14"/><path d="M506,381 q 3,-11 1,-14"/><path d="M144,383 q -3,-14 -1,-17"/><path d="M144,383 q 3,-14 1,-17"/><path d="M140,385 q -3,-10 -1,-13"/><path d="M140,385 q 3,-10 1,-13"/><path d="M479,384 q -3,-8 -1,-11"/><path d="M479,384 q 3,-8 1,-11"/><path d="M484,383 q -3,-6 -1,-9"/><path d="M484,383 q 3,-6 1,-9"/></g>

<rect x="580" y="180" width="139" height="32" rx="16.0" fill="#cfe0ad" stroke="#a9bd85" stroke-width="1.2"/><text x="650" y="203" text-anchor="middle" font-family="Quicksand, sans-serif" font-size="20" font-weight="600" fill="#677d40">ABOUT ME</text>
<text x="580" y="282" font-family="Fredoka, sans-serif" font-size="74" font-weight="600" fill="#677d40">JIRO DAVID</text>
<text x="584" y="324" font-family="Quicksand, sans-serif" font-size="27" font-weight="600" fill="#86995c">Software Engineer</text>
<text x="584" y="356" font-family="Quicksand, sans-serif" font-size="21" font-weight="500" fill="#8fae5d">building cozy tools for creators &amp; gamers</text>
<rect x="580" y="366" width="122" height="32" rx="16.0" fill="#fbfcf5" stroke="#a9bd85" stroke-width="1.2"/><text x="641" y="389" text-anchor="middle" font-family="Quicksand, sans-serif" font-size="19" font-weight="600" fill="#86995c">Next.js</text><rect x="714.46" y="366" width="122" height="32" rx="16.0" fill="#fbfcf5" stroke="#a9bd85" stroke-width="1.2"/><text x="776" y="389" text-anchor="middle" font-family="Quicksand, sans-serif" font-size="19" font-weight="600" fill="#86995c">FastAPI</text><rect x="848.9200000000001" y="366" width="111" height="32" rx="16.0" fill="#fbfcf5" stroke="#a9bd85" stroke-width="1.2"/><text x="904" y="389" text-anchor="middle" font-family="Quicksand, sans-serif" font-size="19" font-weight="600" fill="#86995c">Python</text><rect x="971.6" y="366" width="158" height="32" rx="16.0" fill="#fbfcf5" stroke="#a9bd85" stroke-width="1.2"/><text x="1050" y="389" text-anchor="middle" font-family="Quicksand, sans-serif" font-size="19" font-weight="600" fill="#86995c">TypeScript</text>

<line x1="70" y1="398" x2="1430" y2="398" stroke="#a9bd85" stroke-width="1.2" opacity="0.6"/><g transform="translate(525.0,415)"><g transform="rotate(45) scale(6)"><path d="M0,0 C -0.9,-0.55 -0.45,-1.2 0,-0.72 C 0.45,-1.2 0.9,-0.55 0,0 Z" fill="#8fae5d" stroke="#7d9d57" stroke-width="0.05"/></g><g transform="rotate(135) scale(6)"><path d="M0,0 C -0.9,-0.55 -0.45,-1.2 0,-0.72 C 0.45,-1.2 0.9,-0.55 0,0 Z" fill="#8fae5d" stroke="#7d9d57" stroke-width="0.05"/></g><g transform="rotate(225) scale(6)"><path d="M0,0 C -0.9,-0.55 -0.45,-1.2 0,-0.72 C 0.45,-1.2 0.9,-0.55 0,0 Z" fill="#8fae5d" stroke="#7d9d57" stroke-width="0.05"/></g><g transform="rotate(315) scale(6)"><path d="M0,0 C -0.9,-0.55 -0.45,-1.2 0,-0.72 C 0.45,-1.2 0.9,-0.55 0,0 Z" fill="#8fae5d" stroke="#7d9d57" stroke-width="0.05"/></g><path d="M0,2 q -3.0,9.6 1.2,14.4" stroke="#7d9d57" stroke-width="2.2" fill="none"/></g><g><circle cx="972.0" cy="405.0" r="5.6" fill="#f5f0e1" stroke="#a9bd85" stroke-width="1"/><circle cx="980.6" cy="411.2" r="5.6" fill="#f5f0e1" stroke="#a9bd85" stroke-width="1"/><circle cx="977.3" cy="421.3" r="5.6" fill="#f5f0e1" stroke="#a9bd85" stroke-width="1"/><circle cx="966.7" cy="421.3" r="5.6" fill="#f5f0e1" stroke="#a9bd85" stroke-width="1"/><circle cx="963.4" cy="411.2" r="5.6" fill="#f5f0e1" stroke="#a9bd85" stroke-width="1"/><circle cx="972.0" cy="414" r="5.0" fill="#e9c66f"/></g><text x="750.0" y="422" text-anchor="middle" font-family="Quicksand, sans-serif" font-size="19" font-style="italic" font-weight="500" fill="#86995c">made with care by jiro  ·  jirodavid.dev</text>
</svg>
