<svg xmlns="http://www.w3.org/2000/svg" viewBox="0 0 1400 340" width="1400" height="340">
  <defs>
    <radialGradient id="glow" cx="20%" cy="22%" r="90%">
      <stop offset="0" stop-color="#1a1815"/>
      <stop offset="1" stop-color="#0e0d0b"/>
    </radialGradient>
  </defs>

  <rect x="4" y="4" width="1392" height="332" rx="22" fill="url(#glow)" stroke="#23211d" stroke-width="1.5"/>

  <g stroke="#6b6660" stroke-width="2.5" fill="none">
    <path d="M40 92 V40 H92"/>
    <path d="M1360 92 V40 H1308"/>
    <path d="M40 248 V300 H92"/>
    <path d="M1360 248 V300 H1308"/>
  </g>

  <!-- top left tag + barcode -->
  <text x="72" y="80" fill="#8a857c" font-size="22" font-weight="600" letter-spacing="7" font-family="Archivo, sans-serif">CRT // DEV</text>
  <rect x="72" y="94" width="4" height="22" fill="#6b6660"/>
  <rect x="79" y="106" width="4" height="10" fill="#6b6660"/>
  <rect x="86" y="94" width="4" height="22" fill="#6b6660"/>
  <rect x="93" y="108" width="4" height="8" fill="#6b6660"/>
  <rect x="100" y="98" width="4" height="18" fill="#6b6660"/>
  <rect x="107" y="108" width="4" height="8" fill="#6b6660"/>
  <rect x="114" y="94" width="4" height="22" fill="#6b6660"/>
  <rect x="121" y="104" width="4" height="12" fill="#6b6660"/>
  <rect x="128" y="108" width="4" height="8" fill="#6b6660"/>
  <rect x="135" y="94" width="4" height="22" fill="#6b6660"/>
  <rect x="142" y="108" width="4" height="8" fill="#6b6660"/>
  <rect x="149" y="98" width="4" height="18" fill="#6b6660"/>
  <rect x="156" y="94" width="4" height="22" fill="#6b6660"/>
  <rect x="163" y="106" width="4" height="10" fill="#6b6660"/>
  <rect x="170" y="108" width="4" height="8" fill="#6b6660"/>
  <rect x="177" y="94" width="4" height="22" fill="#6b6660"/>
  <rect x="184" y="104" width="4" height="12" fill="#6b6660"/>
  <rect x="191" y="108" width="4" height="8" fill="#6b6660"/>
  <rect x="198" y="98" width="4" height="18" fill="#6b6660"/>
  <rect x="205" y="94" width="4" height="22" fill="#6b6660"/>

  <!-- top right -->
  <text x="1330" y="80" text-anchor="end" fill="#c1342c" font-size="22" font-weight="700" letter-spacing="5" font-family="Archivo, sans-serif">NO.01</text>
  <path d="M1342 62 h16 v16 z" fill="#c1342c"/>

  <!-- katakana -->
  <text x="74" y="168" fill="#c1342c" font-size="26" font-weight="500" letter-spacing="9" font-family="Noto Sans JP, sans-serif">ジロ・デイビッド</text>

  <!-- name on one line -->
  <text x="70" y="268" font-size="112" font-family="Archivo Black, sans-serif"><tspan fill="#e8e1d0">JIRO</tspan><tspan fill="#c1342c"> DAVID</tspan></text>
  <rect x="76" y="286" width="250" height="11" fill="#c1342c"/>

  <!-- right info column -->
  <line x1="965" y1="120" x2="965" y2="262" stroke="#33302b" stroke-width="1.5"/>
  <text x="1000" y="158" fill="#7c8a6a" font-size="32" font-weight="600" letter-spacing="6" font-family="Archivo, sans-serif">SOFTWARE</text>
  <text x="1000" y="200" fill="#7c8a6a" font-size="32" font-weight="600" letter-spacing="6" font-family="Archivo, sans-serif">ENGINEER</text>
  <text x="1000" y="244" fill="#8a857c" font-size="15" font-weight="600" letter-spacing="4" font-family="Archivo, sans-serif">WEB</text>
  <text x="1000" y="272" fill="#e8e1d0" font-size="24" letter-spacing="1" font-family="JetBrains Mono, monospace">jirodavid.dev</text>
</svg>
