<svg xmlns="http://www.w3.org/2000/svg" viewBox="0 0 1000 660" width="1000" height="660">
  <defs>
    <radialGradient id="glow" cx="22%" cy="18%" r="80%">
      <stop offset="0" stop-color="#1a1815"/>
      <stop offset="1" stop-color="#0e0d0b"/>
    </radialGradient>
  </defs>

  <rect x="6" y="6" width="988" height="648" rx="30" fill="url(#glow)" stroke="#23211d" stroke-width="1.5"/>

  <g stroke="#6b6660" stroke-width="3" fill="none">
    <path d="M40 86 V40 H86"/>
    <path d="M960 86 V40 H914"/>
    <path d="M40 574 V620 H86"/>
    <path d="M960 574 V620 H914"/>
  </g>

  <text x="95" y="108" fill="#8a857c" font-size="30" font-weight="600" letter-spacing="8" font-family="Archivo, sans-serif">CRT // DEV</text>
  <rect x="95" y="120" width="5" height="30" fill="#6b6660"/>
  <rect x="104" y="132" width="5" height="18" fill="#6b6660"/>
  <rect x="113" y="120" width="5" height="30" fill="#6b6660"/>
  <rect x="122" y="138" width="5" height="12" fill="#6b6660"/>
  <rect x="131" y="124" width="5" height="26" fill="#6b6660"/>
  <rect x="140" y="138" width="5" height="12" fill="#6b6660"/>
  <rect x="149" y="120" width="5" height="30" fill="#6b6660"/>
  <rect x="158" y="132" width="5" height="18" fill="#6b6660"/>
  <rect x="167" y="138" width="5" height="12" fill="#6b6660"/>
  <rect x="176" y="120" width="5" height="30" fill="#6b6660"/>
  <rect x="185" y="138" width="5" height="12" fill="#6b6660"/>
  <rect x="194" y="124" width="5" height="26" fill="#6b6660"/>
  <rect x="203" y="120" width="5" height="30" fill="#6b6660"/>
  <rect x="212" y="132" width="5" height="18" fill="#6b6660"/>
  <rect x="221" y="138" width="5" height="12" fill="#6b6660"/>
  <rect x="230" y="120" width="5" height="30" fill="#6b6660"/>

  <text x="95" y="205" fill="#c1342c" font-size="36" font-weight="500" letter-spacing="10" font-family="Noto Sans JP, sans-serif">ジロ・デイビッド</text>

  <text x="86" y="330" fill="#e8e1d0" font-size="130" letter-spacing="1" font-family="Archivo Black, sans-serif">JIRO</text>
  <text x="84" y="455" fill="#c1342c" font-size="130" letter-spacing="1" font-family="Archivo Black, sans-serif">DAVID</text>
  <rect x="90" y="480" width="205" height="13" fill="#c1342c"/>

  <text x="95" y="552" fill="#7c8a6a" font-size="29" font-weight="600" letter-spacing="8" font-family="Archivo, sans-serif">SOFTWARE ENGINEER</text>

  <text x="868" y="108" text-anchor="end" fill="#c1342c" font-size="30" font-weight="700" letter-spacing="6" font-family="Archivo, sans-serif">NO.01</text>
  <path d="M884 84 h22 v22 z" fill="#c1342c"/>

  <rect x="700" y="232" width="274" height="274" rx="8" fill="#0a0908" stroke="#6b6660" stroke-width="2.5"/>
  <g transform="translate(712,244)">
  <g fill="#e8e4d8">
<rect x="61.06" y="0.45" width="6.67" height="6.67" rx="2.42"/>
<rect x="68.64" y="0.45" width="6.67" height="6.67" rx="2.42"/>
<rect x="106.52" y="0.45" width="6.67" height="6.67" rx="2.42"/>
<rect x="151.97" y="0.45" width="6.67" height="6.67" rx="2.42"/>
<rect x="167.12" y="0.45" width="6.67" height="6.67" rx="2.42"/>
<rect x="174.70" y="0.45" width="6.67" height="6.67" rx="2.42"/>
<rect x="182.27" y="0.45" width="6.67" height="6.67" rx="2.42"/>
<rect x="76.21" y="8.03" width="6.67" height="6.67" rx="2.42"/>
<rect x="83.79" y="8.03" width="6.67" height="6.67" rx="2.42"/>
<rect x="98.94" y="8.03" width="6.67" height="6.67" rx="2.42"/>
<rect x="121.67" y="8.03" width="6.67" height="6.67" rx="2.42"/>
<rect x="129.24" y="8.03" width="6.67" height="6.67" rx="2.42"/>
<rect x="136.82" y="8.03" width="6.67" height="6.67" rx="2.42"/>
<rect x="144.39" y="8.03" width="6.67" height="6.67" rx="2.42"/>
<rect x="174.70" y="8.03" width="6.67" height="6.67" rx="2.42"/>
<rect x="68.64" y="15.61" width="6.67" height="6.67" rx="2.42"/>
<rect x="76.21" y="15.61" width="6.67" height="6.67" rx="2.42"/>
<rect x="91.36" y="15.61" width="6.67" height="6.67" rx="2.42"/>
<rect x="98.94" y="15.61" width="6.67" height="6.67" rx="2.42"/>
<rect x="106.52" y="15.61" width="6.67" height="6.67" rx="2.42"/>
<rect x="129.24" y="15.61" width="6.67" height="6.67" rx="2.42"/>
<rect x="136.82" y="15.61" width="6.67" height="6.67" rx="2.42"/>
<rect x="151.97" y="15.61" width="6.67" height="6.67" rx="2.42"/>
<rect x="167.12" y="15.61" width="6.67" height="6.67" rx="2.42"/>
<rect x="174.70" y="15.61" width="6.67" height="6.67" rx="2.42"/>
<rect x="182.27" y="15.61" width="6.67" height="6.67" rx="2.42"/>
<rect x="61.06" y="23.18" width="6.67" height="6.67" rx="2.42"/>
<rect x="68.64" y="23.18" width="6.67" height="6.67" rx="2.42"/>
<rect x="83.79" y="23.18" width="6.67" height="6.67" rx="2.42"/>
<rect x="106.52" y="23.18" width="6.67" height="6.67" rx="2.42"/>
<rect x="114.09" y="23.18" width="6.67" height="6.67" rx="2.42"/>
<rect x="136.82" y="23.18" width="6.67" height="6.67" rx="2.42"/>
<rect x="167.12" y="23.18" width="6.67" height="6.67" rx="2.42"/>
<rect x="182.27" y="23.18" width="6.67" height="6.67" rx="2.42"/>
<rect x="68.64" y="30.76" width="6.67" height="6.67" rx="2.42"/>
<rect x="76.21" y="30.76" width="6.67" height="6.67" rx="2.42"/>
<rect x="83.79" y="30.76" width="6.67" height="6.67" rx="2.42"/>
<rect x="91.36" y="30.76" width="6.67" height="6.67" rx="2.42"/>
<rect x="114.09" y="30.76" width="6.67" height="6.67" rx="2.42"/>
<rect x="129.24" y="30.76" width="6.67" height="6.67" rx="2.42"/>
<rect x="144.39" y="30.76" width="6.67" height="6.67" rx="2.42"/>
<rect x="151.97" y="30.76" width="6.67" height="6.67" rx="2.42"/>
<rect x="167.12" y="30.76" width="6.67" height="6.67" rx="2.42"/>
<rect x="182.27" y="30.76" width="6.67" height="6.67" rx="2.42"/>
<rect x="68.64" y="38.33" width="6.67" height="6.67" rx="2.42"/>
<rect x="76.21" y="38.33" width="6.67" height="6.67" rx="2.42"/>
<rect x="83.79" y="38.33" width="6.67" height="6.67" rx="2.42"/>
<rect x="98.94" y="38.33" width="6.67" height="6.67" rx="2.42"/>
<rect x="106.52" y="38.33" width="6.67" height="6.67" rx="2.42"/>
<rect x="121.67" y="38.33" width="6.67" height="6.67" rx="2.42"/>
<rect x="136.82" y="38.33" width="6.67" height="6.67" rx="2.42"/>
<rect x="159.55" y="38.33" width="6.67" height="6.67" rx="2.42"/>
<rect x="167.12" y="38.33" width="6.67" height="6.67" rx="2.42"/>
<rect x="174.70" y="38.33" width="6.67" height="6.67" rx="2.42"/>
<rect x="182.27" y="38.33" width="6.67" height="6.67" rx="2.42"/>
<rect x="61.06" y="45.91" width="6.67" height="6.67" rx="2.42"/>
<rect x="76.21" y="45.91" width="6.67" height="6.67" rx="2.42"/>
<rect x="91.36" y="45.91" width="6.67" height="6.67" rx="2.42"/>
<rect x="106.52" y="45.91" width="6.67" height="6.67" rx="2.42"/>
<rect x="121.67" y="45.91" width="6.67" height="6.67" rx="2.42"/>
<rect x="136.82" y="45.91" width="6.67" height="6.67" rx="2.42"/>
<rect x="151.97" y="45.91" width="6.67" height="6.67" rx="2.42"/>
<rect x="167.12" y="45.91" width="6.67" height="6.67" rx="2.42"/>
<rect x="182.27" y="45.91" width="6.67" height="6.67" rx="2.42"/>
<rect x="68.64" y="53.48" width="6.67" height="6.67" rx="2.42"/>
<rect x="91.36" y="53.48" width="6.67" height="6.67" rx="2.42"/>
<rect x="98.94" y="53.48" width="6.67" height="6.67" rx="2.42"/>
<rect x="106.52" y="53.48" width="6.67" height="6.67" rx="2.42"/>
<rect x="114.09" y="53.48" width="6.67" height="6.67" rx="2.42"/>
<rect x="144.39" y="53.48" width="6.67" height="6.67" rx="2.42"/>
<rect x="159.55" y="53.48" width="6.67" height="6.67" rx="2.42"/>
<rect x="167.12" y="53.48" width="6.67" height="6.67" rx="2.42"/>
<rect x="174.70" y="53.48" width="6.67" height="6.67" rx="2.42"/>
<rect x="15.61" y="61.06" width="6.67" height="6.67" rx="2.42"/>
<rect x="30.76" y="61.06" width="6.67" height="6.67" rx="2.42"/>
<rect x="38.33" y="61.06" width="6.67" height="6.67" rx="2.42"/>
<rect x="45.91" y="61.06" width="6.67" height="6.67" rx="2.42"/>
<rect x="61.06" y="61.06" width="6.67" height="6.67" rx="2.42"/>
<rect x="91.36" y="61.06" width="6.67" height="6.67" rx="2.42"/>
<rect x="114.09" y="61.06" width="6.67" height="6.67" rx="2.42"/>
<rect x="129.24" y="61.06" width="6.67" height="6.67" rx="2.42"/>
<rect x="136.82" y="61.06" width="6.67" height="6.67" rx="2.42"/>
<rect x="159.55" y="61.06" width="6.67" height="6.67" rx="2.42"/>
<rect x="182.27" y="61.06" width="6.67" height="6.67" rx="2.42"/>
<rect x="189.85" y="61.06" width="6.67" height="6.67" rx="2.42"/>
<rect x="220.15" y="61.06" width="6.67" height="6.67" rx="2.42"/>
<rect x="242.88" y="61.06" width="6.67" height="6.67" rx="2.42"/>
<rect x="8.03" y="68.64" width="6.67" height="6.67" rx="2.42"/>
<rect x="23.18" y="68.64" width="6.67" height="6.67" rx="2.42"/>
<rect x="30.76" y="68.64" width="6.67" height="6.67" rx="2.42"/>
<rect x="53.48" y="68.64" width="6.67" height="6.67" rx="2.42"/>
<rect x="76.21" y="68.64" width="6.67" height="6.67" rx="2.42"/>
<rect x="106.52" y="68.64" width="6.67" height="6.67" rx="2.42"/>
<rect x="144.39" y="68.64" width="6.67" height="6.67" rx="2.42"/>
<rect x="151.97" y="68.64" width="6.67" height="6.67" rx="2.42"/>
<rect x="167.12" y="68.64" width="6.67" height="6.67" rx="2.42"/>
<rect x="182.27" y="68.64" width="6.67" height="6.67" rx="2.42"/>
<rect x="197.42" y="68.64" width="6.67" height="6.67" rx="2.42"/>
<rect x="220.15" y="68.64" width="6.67" height="6.67" rx="2.42"/>
<rect x="242.88" y="68.64" width="6.67" height="6.67" rx="2.42"/>
<rect x="8.03" y="76.21" width="6.67" height="6.67" rx="2.42"/>
<rect x="38.33" y="76.21" width="6.67" height="6.67" rx="2.42"/>
<rect x="45.91" y="76.21" width="6.67" height="6.67" rx="2.42"/>
<rect x="121.67" y="76.21" width="6.67" height="6.67" rx="2.42"/>
<rect x="159.55" y="76.21" width="6.67" height="6.67" rx="2.42"/>
<rect x="182.27" y="76.21" width="6.67" height="6.67" rx="2.42"/>
<rect x="189.85" y="76.21" width="6.67" height="6.67" rx="2.42"/>
<rect x="212.58" y="76.21" width="6.67" height="6.67" rx="2.42"/>
<rect x="220.15" y="76.21" width="6.67" height="6.67" rx="2.42"/>
<rect x="227.73" y="76.21" width="6.67" height="6.67" rx="2.42"/>
<rect x="235.30" y="76.21" width="6.67" height="6.67" rx="2.42"/>
<rect x="242.88" y="76.21" width="6.67" height="6.67" rx="2.42"/>
<rect x="0.45" y="83.79" width="6.67" height="6.67" rx="2.42"/>
<rect x="15.61" y="83.79" width="6.67" height="6.67" rx="2.42"/>
<rect x="23.18" y="83.79" width="6.67" height="6.67" rx="2.42"/>
<rect x="30.76" y="83.79" width="6.67" height="6.67" rx="2.42"/>
<rect x="38.33" y="83.79" width="6.67" height="6.67" rx="2.42"/>
<rect x="61.06" y="83.79" width="6.67" height="6.67" rx="2.42"/>
<rect x="68.64" y="83.79" width="6.67" height="6.67" rx="2.42"/>
<rect x="76.21" y="83.79" width="6.67" height="6.67" rx="2.42"/>
<rect x="98.94" y="83.79" width="6.67" height="6.67" rx="2.42"/>
<rect x="106.52" y="83.79" width="6.67" height="6.67" rx="2.42"/>
<rect x="151.97" y="83.79" width="6.67" height="6.67" rx="2.42"/>
<rect x="174.70" y="83.79" width="6.67" height="6.67" rx="2.42"/>
<rect x="182.27" y="83.79" width="6.67" height="6.67" rx="2.42"/>
<rect x="189.85" y="83.79" width="6.67" height="6.67" rx="2.42"/>
<rect x="197.42" y="83.79" width="6.67" height="6.67" rx="2.42"/>
<rect x="242.88" y="83.79" width="6.67" height="6.67" rx="2.42"/>
<rect x="0.45" y="91.36" width="6.67" height="6.67" rx="2.42"/>
<rect x="8.03" y="91.36" width="6.67" height="6.67" rx="2.42"/>
<rect x="15.61" y="91.36" width="6.67" height="6.67" rx="2.42"/>
<rect x="23.18" y="91.36" width="6.67" height="6.67" rx="2.42"/>
<rect x="38.33" y="91.36" width="6.67" height="6.67" rx="2.42"/>
<rect x="45.91" y="91.36" width="6.67" height="6.67" rx="2.42"/>
<rect x="53.48" y="91.36" width="6.67" height="6.67" rx="2.42"/>
<rect x="68.64" y="91.36" width="6.67" height="6.67" rx="2.42"/>
<rect x="91.36" y="91.36" width="6.67" height="6.67" rx="2.42"/>
<rect x="98.94" y="91.36" width="6.67" height="6.67" rx="2.42"/>
<rect x="121.67" y="91.36" width="6.67" height="6.67" rx="2.42"/>
<rect x="129.24" y="91.36" width="6.67" height="6.67" rx="2.42"/>
<rect x="136.82" y="91.36" width="6.67" height="6.67" rx="2.42"/>
<rect x="189.85" y="91.36" width="6.67" height="6.67" rx="2.42"/>
<rect x="197.42" y="91.36" width="6.67" height="6.67" rx="2.42"/>
<rect x="212.58" y="91.36" width="6.67" height="6.67" rx="2.42"/>
<rect x="220.15" y="91.36" width="6.67" height="6.67" rx="2.42"/>
<rect x="235.30" y="91.36" width="6.67" height="6.67" rx="2.42"/>
<rect x="242.88" y="91.36" width="6.67" height="6.67" rx="2.42"/>
<rect x="0.45" y="98.94" width="6.67" height="6.67" rx="2.42"/>
<rect x="8.03" y="98.94" width="6.67" height="6.67" rx="2.42"/>
<rect x="23.18" y="98.94" width="6.67" height="6.67" rx="2.42"/>
<rect x="38.33" y="98.94" width="6.67" height="6.67" rx="2.42"/>
<rect x="61.06" y="98.94" width="6.67" height="6.67" rx="2.42"/>
<rect x="76.21" y="98.94" width="6.67" height="6.67" rx="2.42"/>
<rect x="151.97" y="98.94" width="6.67" height="6.67" rx="2.42"/>
<rect x="182.27" y="98.94" width="6.67" height="6.67" rx="2.42"/>
<rect x="189.85" y="98.94" width="6.67" height="6.67" rx="2.42"/>
<rect x="197.42" y="98.94" width="6.67" height="6.67" rx="2.42"/>
<rect x="212.58" y="98.94" width="6.67" height="6.67" rx="2.42"/>
<rect x="227.73" y="98.94" width="6.67" height="6.67" rx="2.42"/>
<rect x="235.30" y="98.94" width="6.67" height="6.67" rx="2.42"/>
<rect x="242.88" y="98.94" width="6.67" height="6.67" rx="2.42"/>
<rect x="0.45" y="106.52" width="6.67" height="6.67" rx="2.42"/>
<rect x="8.03" y="106.52" width="6.67" height="6.67" rx="2.42"/>
<rect x="15.61" y="106.52" width="6.67" height="6.67" rx="2.42"/>
<rect x="23.18" y="106.52" width="6.67" height="6.67" rx="2.42"/>
<rect x="30.76" y="106.52" width="6.67" height="6.67" rx="2.42"/>
<rect x="45.91" y="106.52" width="6.67" height="6.67" rx="2.42"/>
<rect x="68.64" y="106.52" width="6.67" height="6.67" rx="2.42"/>
<rect x="83.79" y="106.52" width="6.67" height="6.67" rx="2.42"/>
<rect x="159.55" y="106.52" width="6.67" height="6.67" rx="2.42"/>
<rect x="189.85" y="106.52" width="6.67" height="6.67" rx="2.42"/>
<rect x="197.42" y="106.52" width="6.67" height="6.67" rx="2.42"/>
<rect x="235.30" y="106.52" width="6.67" height="6.67" rx="2.42"/>
<rect x="242.88" y="106.52" width="6.67" height="6.67" rx="2.42"/>
<rect x="15.61" y="114.09" width="6.67" height="6.67" rx="2.42"/>
<rect x="30.76" y="114.09" width="6.67" height="6.67" rx="2.42"/>
<rect x="38.33" y="114.09" width="6.67" height="6.67" rx="2.42"/>
<rect x="61.06" y="114.09" width="6.67" height="6.67" rx="2.42"/>
<rect x="76.21" y="114.09" width="6.67" height="6.67" rx="2.42"/>
<rect x="91.36" y="114.09" width="6.67" height="6.67" rx="2.42"/>
<rect x="159.55" y="114.09" width="6.67" height="6.67" rx="2.42"/>
<rect x="167.12" y="114.09" width="6.67" height="6.67" rx="2.42"/>
<rect x="174.70" y="114.09" width="6.67" height="6.67" rx="2.42"/>
<rect x="189.85" y="114.09" width="6.67" height="6.67" rx="2.42"/>
<rect x="212.58" y="114.09" width="6.67" height="6.67" rx="2.42"/>
<rect x="227.73" y="114.09" width="6.67" height="6.67" rx="2.42"/>
<rect x="8.03" y="121.67" width="6.67" height="6.67" rx="2.42"/>
<rect x="30.76" y="121.67" width="6.67" height="6.67" rx="2.42"/>
<rect x="45.91" y="121.67" width="6.67" height="6.67" rx="2.42"/>
<rect x="53.48" y="121.67" width="6.67" height="6.67" rx="2.42"/>
<rect x="61.06" y="121.67" width="6.67" height="6.67" rx="2.42"/>
<rect x="68.64" y="121.67" width="6.67" height="6.67" rx="2.42"/>
<rect x="76.21" y="121.67" width="6.67" height="6.67" rx="2.42"/>
<rect x="151.97" y="121.67" width="6.67" height="6.67" rx="2.42"/>
<rect x="159.55" y="121.67" width="6.67" height="6.67" rx="2.42"/>
<rect x="167.12" y="121.67" width="6.67" height="6.67" rx="2.42"/>
<rect x="174.70" y="121.67" width="6.67" height="6.67" rx="2.42"/>
<rect x="197.42" y="121.67" width="6.67" height="6.67" rx="2.42"/>
<rect x="227.73" y="121.67" width="6.67" height="6.67" rx="2.42"/>
<rect x="8.03" y="129.24" width="6.67" height="6.67" rx="2.42"/>
<rect x="30.76" y="129.24" width="6.67" height="6.67" rx="2.42"/>
<rect x="53.48" y="129.24" width="6.67" height="6.67" rx="2.42"/>
<rect x="61.06" y="129.24" width="6.67" height="6.67" rx="2.42"/>
<rect x="76.21" y="129.24" width="6.67" height="6.67" rx="2.42"/>
<rect x="151.97" y="129.24" width="6.67" height="6.67" rx="2.42"/>
<rect x="189.85" y="129.24" width="6.67" height="6.67" rx="2.42"/>
<rect x="197.42" y="129.24" width="6.67" height="6.67" rx="2.42"/>
<rect x="220.15" y="129.24" width="6.67" height="6.67" rx="2.42"/>
<rect x="227.73" y="129.24" width="6.67" height="6.67" rx="2.42"/>
<rect x="235.30" y="129.24" width="6.67" height="6.67" rx="2.42"/>
<rect x="0.45" y="136.82" width="6.67" height="6.67" rx="2.42"/>
<rect x="8.03" y="136.82" width="6.67" height="6.67" rx="2.42"/>
<rect x="23.18" y="136.82" width="6.67" height="6.67" rx="2.42"/>
<rect x="30.76" y="136.82" width="6.67" height="6.67" rx="2.42"/>
<rect x="38.33" y="136.82" width="6.67" height="6.67" rx="2.42"/>
<rect x="45.91" y="136.82" width="6.67" height="6.67" rx="2.42"/>
<rect x="53.48" y="136.82" width="6.67" height="6.67" rx="2.42"/>
<rect x="61.06" y="136.82" width="6.67" height="6.67" rx="2.42"/>
<rect x="91.36" y="136.82" width="6.67" height="6.67" rx="2.42"/>
<rect x="151.97" y="136.82" width="6.67" height="6.67" rx="2.42"/>
<rect x="159.55" y="136.82" width="6.67" height="6.67" rx="2.42"/>
<rect x="197.42" y="136.82" width="6.67" height="6.67" rx="2.42"/>
<rect x="205.00" y="136.82" width="6.67" height="6.67" rx="2.42"/>
<rect x="212.58" y="136.82" width="6.67" height="6.67" rx="2.42"/>
<rect x="227.73" y="136.82" width="6.67" height="6.67" rx="2.42"/>
<rect x="242.88" y="136.82" width="6.67" height="6.67" rx="2.42"/>
<rect x="8.03" y="144.39" width="6.67" height="6.67" rx="2.42"/>
<rect x="15.61" y="144.39" width="6.67" height="6.67" rx="2.42"/>
<rect x="23.18" y="144.39" width="6.67" height="6.67" rx="2.42"/>
<rect x="30.76" y="144.39" width="6.67" height="6.67" rx="2.42"/>
<rect x="38.33" y="144.39" width="6.67" height="6.67" rx="2.42"/>
<rect x="61.06" y="144.39" width="6.67" height="6.67" rx="2.42"/>
<rect x="68.64" y="144.39" width="6.67" height="6.67" rx="2.42"/>
<rect x="76.21" y="144.39" width="6.67" height="6.67" rx="2.42"/>
<rect x="83.79" y="144.39" width="6.67" height="6.67" rx="2.42"/>
<rect x="159.55" y="144.39" width="6.67" height="6.67" rx="2.42"/>
<rect x="167.12" y="144.39" width="6.67" height="6.67" rx="2.42"/>
<rect x="205.00" y="144.39" width="6.67" height="6.67" rx="2.42"/>
<rect x="212.58" y="144.39" width="6.67" height="6.67" rx="2.42"/>
<rect x="235.30" y="144.39" width="6.67" height="6.67" rx="2.42"/>
<rect x="8.03" y="151.97" width="6.67" height="6.67" rx="2.42"/>
<rect x="30.76" y="151.97" width="6.67" height="6.67" rx="2.42"/>
<rect x="45.91" y="151.97" width="6.67" height="6.67" rx="2.42"/>
<rect x="61.06" y="151.97" width="6.67" height="6.67" rx="2.42"/>
<rect x="76.21" y="151.97" width="6.67" height="6.67" rx="2.42"/>
<rect x="136.82" y="151.97" width="6.67" height="6.67" rx="2.42"/>
<rect x="159.55" y="151.97" width="6.67" height="6.67" rx="2.42"/>
<rect x="182.27" y="151.97" width="6.67" height="6.67" rx="2.42"/>
<rect x="197.42" y="151.97" width="6.67" height="6.67" rx="2.42"/>
<rect x="220.15" y="151.97" width="6.67" height="6.67" rx="2.42"/>
<rect x="242.88" y="151.97" width="6.67" height="6.67" rx="2.42"/>
<rect x="23.18" y="159.55" width="6.67" height="6.67" rx="2.42"/>
<rect x="30.76" y="159.55" width="6.67" height="6.67" rx="2.42"/>
<rect x="38.33" y="159.55" width="6.67" height="6.67" rx="2.42"/>
<rect x="106.52" y="159.55" width="6.67" height="6.67" rx="2.42"/>
<rect x="114.09" y="159.55" width="6.67" height="6.67" rx="2.42"/>
<rect x="151.97" y="159.55" width="6.67" height="6.67" rx="2.42"/>
<rect x="159.55" y="159.55" width="6.67" height="6.67" rx="2.42"/>
<rect x="174.70" y="159.55" width="6.67" height="6.67" rx="2.42"/>
<rect x="182.27" y="159.55" width="6.67" height="6.67" rx="2.42"/>
<rect x="205.00" y="159.55" width="6.67" height="6.67" rx="2.42"/>
<rect x="235.30" y="159.55" width="6.67" height="6.67" rx="2.42"/>
<rect x="242.88" y="159.55" width="6.67" height="6.67" rx="2.42"/>
<rect x="0.45" y="167.12" width="6.67" height="6.67" rx="2.42"/>
<rect x="38.33" y="167.12" width="6.67" height="6.67" rx="2.42"/>
<rect x="45.91" y="167.12" width="6.67" height="6.67" rx="2.42"/>
<rect x="61.06" y="167.12" width="6.67" height="6.67" rx="2.42"/>
<rect x="83.79" y="167.12" width="6.67" height="6.67" rx="2.42"/>
<rect x="91.36" y="167.12" width="6.67" height="6.67" rx="2.42"/>
<rect x="98.94" y="167.12" width="6.67" height="6.67" rx="2.42"/>
<rect x="129.24" y="167.12" width="6.67" height="6.67" rx="2.42"/>
<rect x="136.82" y="167.12" width="6.67" height="6.67" rx="2.42"/>
<rect x="144.39" y="167.12" width="6.67" height="6.67" rx="2.42"/>
<rect x="151.97" y="167.12" width="6.67" height="6.67" rx="2.42"/>
<rect x="159.55" y="167.12" width="6.67" height="6.67" rx="2.42"/>
<rect x="174.70" y="167.12" width="6.67" height="6.67" rx="2.42"/>
<rect x="182.27" y="167.12" width="6.67" height="6.67" rx="2.42"/>
<rect x="197.42" y="167.12" width="6.67" height="6.67" rx="2.42"/>
<rect x="205.00" y="167.12" width="6.67" height="6.67" rx="2.42"/>
<rect x="220.15" y="167.12" width="6.67" height="6.67" rx="2.42"/>
<rect x="235.30" y="167.12" width="6.67" height="6.67" rx="2.42"/>
<rect x="242.88" y="167.12" width="6.67" height="6.67" rx="2.42"/>
<rect x="8.03" y="174.70" width="6.67" height="6.67" rx="2.42"/>
<rect x="23.18" y="174.70" width="6.67" height="6.67" rx="2.42"/>
<rect x="53.48" y="174.70" width="6.67" height="6.67" rx="2.42"/>
<rect x="91.36" y="174.70" width="6.67" height="6.67" rx="2.42"/>
<rect x="98.94" y="174.70" width="6.67" height="6.67" rx="2.42"/>
<rect x="106.52" y="174.70" width="6.67" height="6.67" rx="2.42"/>
<rect x="121.67" y="174.70" width="6.67" height="6.67" rx="2.42"/>
<rect x="144.39" y="174.70" width="6.67" height="6.67" rx="2.42"/>
<rect x="151.97" y="174.70" width="6.67" height="6.67" rx="2.42"/>
<rect x="159.55" y="174.70" width="6.67" height="6.67" rx="2.42"/>
<rect x="182.27" y="174.70" width="6.67" height="6.67" rx="2.42"/>
<rect x="189.85" y="174.70" width="6.67" height="6.67" rx="2.42"/>
<rect x="235.30" y="174.70" width="6.67" height="6.67" rx="2.42"/>
<rect x="0.45" y="182.27" width="6.67" height="6.67" rx="2.42"/>
<rect x="15.61" y="182.27" width="6.67" height="6.67" rx="2.42"/>
<rect x="38.33" y="182.27" width="6.67" height="6.67" rx="2.42"/>
<rect x="45.91" y="182.27" width="6.67" height="6.67" rx="2.42"/>
<rect x="53.48" y="182.27" width="6.67" height="6.67" rx="2.42"/>
<rect x="68.64" y="182.27" width="6.67" height="6.67" rx="2.42"/>
<rect x="98.94" y="182.27" width="6.67" height="6.67" rx="2.42"/>
<rect x="106.52" y="182.27" width="6.67" height="6.67" rx="2.42"/>
<rect x="114.09" y="182.27" width="6.67" height="6.67" rx="2.42"/>
<rect x="129.24" y="182.27" width="6.67" height="6.67" rx="2.42"/>
<rect x="136.82" y="182.27" width="6.67" height="6.67" rx="2.42"/>
<rect x="144.39" y="182.27" width="6.67" height="6.67" rx="2.42"/>
<rect x="151.97" y="182.27" width="6.67" height="6.67" rx="2.42"/>
<rect x="167.12" y="182.27" width="6.67" height="6.67" rx="2.42"/>
<rect x="174.70" y="182.27" width="6.67" height="6.67" rx="2.42"/>
<rect x="182.27" y="182.27" width="6.67" height="6.67" rx="2.42"/>
<rect x="189.85" y="182.27" width="6.67" height="6.67" rx="2.42"/>
<rect x="197.42" y="182.27" width="6.67" height="6.67" rx="2.42"/>
<rect x="205.00" y="182.27" width="6.67" height="6.67" rx="2.42"/>
<rect x="212.58" y="182.27" width="6.67" height="6.67" rx="2.42"/>
<rect x="220.15" y="182.27" width="6.67" height="6.67" rx="2.42"/>
<rect x="235.30" y="182.27" width="6.67" height="6.67" rx="2.42"/>
<rect x="242.88" y="182.27" width="6.67" height="6.67" rx="2.42"/>
<rect x="61.06" y="189.85" width="6.67" height="6.67" rx="2.42"/>
<rect x="114.09" y="189.85" width="6.67" height="6.67" rx="2.42"/>
<rect x="136.82" y="189.85" width="6.67" height="6.67" rx="2.42"/>
<rect x="144.39" y="189.85" width="6.67" height="6.67" rx="2.42"/>
<rect x="159.55" y="189.85" width="6.67" height="6.67" rx="2.42"/>
<rect x="174.70" y="189.85" width="6.67" height="6.67" rx="2.42"/>
<rect x="182.27" y="189.85" width="6.67" height="6.67" rx="2.42"/>
<rect x="212.58" y="189.85" width="6.67" height="6.67" rx="2.42"/>
<rect x="242.88" y="189.85" width="6.67" height="6.67" rx="2.42"/>
<rect x="83.79" y="197.42" width="6.67" height="6.67" rx="2.42"/>
<rect x="106.52" y="197.42" width="6.67" height="6.67" rx="2.42"/>
<rect x="121.67" y="197.42" width="6.67" height="6.67" rx="2.42"/>
<rect x="129.24" y="197.42" width="6.67" height="6.67" rx="2.42"/>
<rect x="136.82" y="197.42" width="6.67" height="6.67" rx="2.42"/>
<rect x="144.39" y="197.42" width="6.67" height="6.67" rx="2.42"/>
<rect x="151.97" y="197.42" width="6.67" height="6.67" rx="2.42"/>
<rect x="167.12" y="197.42" width="6.67" height="6.67" rx="2.42"/>
<rect x="174.70" y="197.42" width="6.67" height="6.67" rx="2.42"/>
<rect x="182.27" y="197.42" width="6.67" height="6.67" rx="2.42"/>
<rect x="197.42" y="197.42" width="6.67" height="6.67" rx="2.42"/>
<rect x="212.58" y="197.42" width="6.67" height="6.67" rx="2.42"/>
<rect x="235.30" y="197.42" width="6.67" height="6.67" rx="2.42"/>
<rect x="242.88" y="197.42" width="6.67" height="6.67" rx="2.42"/>
<rect x="61.06" y="205.00" width="6.67" height="6.67" rx="2.42"/>
<rect x="76.21" y="205.00" width="6.67" height="6.67" rx="2.42"/>
<rect x="83.79" y="205.00" width="6.67" height="6.67" rx="2.42"/>
<rect x="98.94" y="205.00" width="6.67" height="6.67" rx="2.42"/>
<rect x="121.67" y="205.00" width="6.67" height="6.67" rx="2.42"/>
<rect x="136.82" y="205.00" width="6.67" height="6.67" rx="2.42"/>
<rect x="144.39" y="205.00" width="6.67" height="6.67" rx="2.42"/>
<rect x="159.55" y="205.00" width="6.67" height="6.67" rx="2.42"/>
<rect x="167.12" y="205.00" width="6.67" height="6.67" rx="2.42"/>
<rect x="182.27" y="205.00" width="6.67" height="6.67" rx="2.42"/>
<rect x="212.58" y="205.00" width="6.67" height="6.67" rx="2.42"/>
<rect x="242.88" y="205.00" width="6.67" height="6.67" rx="2.42"/>
<rect x="61.06" y="212.58" width="6.67" height="6.67" rx="2.42"/>
<rect x="68.64" y="212.58" width="6.67" height="6.67" rx="2.42"/>
<rect x="83.79" y="212.58" width="6.67" height="6.67" rx="2.42"/>
<rect x="114.09" y="212.58" width="6.67" height="6.67" rx="2.42"/>
<rect x="121.67" y="212.58" width="6.67" height="6.67" rx="2.42"/>
<rect x="129.24" y="212.58" width="6.67" height="6.67" rx="2.42"/>
<rect x="136.82" y="212.58" width="6.67" height="6.67" rx="2.42"/>
<rect x="144.39" y="212.58" width="6.67" height="6.67" rx="2.42"/>
<rect x="167.12" y="212.58" width="6.67" height="6.67" rx="2.42"/>
<rect x="182.27" y="212.58" width="6.67" height="6.67" rx="2.42"/>
<rect x="189.85" y="212.58" width="6.67" height="6.67" rx="2.42"/>
<rect x="197.42" y="212.58" width="6.67" height="6.67" rx="2.42"/>
<rect x="205.00" y="212.58" width="6.67" height="6.67" rx="2.42"/>
<rect x="212.58" y="212.58" width="6.67" height="6.67" rx="2.42"/>
<rect x="235.30" y="212.58" width="6.67" height="6.67" rx="2.42"/>
<rect x="76.21" y="220.15" width="6.67" height="6.67" rx="2.42"/>
<rect x="91.36" y="220.15" width="6.67" height="6.67" rx="2.42"/>
<rect x="98.94" y="220.15" width="6.67" height="6.67" rx="2.42"/>
<rect x="106.52" y="220.15" width="6.67" height="6.67" rx="2.42"/>
<rect x="151.97" y="220.15" width="6.67" height="6.67" rx="2.42"/>
<rect x="167.12" y="220.15" width="6.67" height="6.67" rx="2.42"/>
<rect x="174.70" y="220.15" width="6.67" height="6.67" rx="2.42"/>
<rect x="182.27" y="220.15" width="6.67" height="6.67" rx="2.42"/>
<rect x="212.58" y="220.15" width="6.67" height="6.67" rx="2.42"/>
<rect x="220.15" y="220.15" width="6.67" height="6.67" rx="2.42"/>
<rect x="61.06" y="227.73" width="6.67" height="6.67" rx="2.42"/>
<rect x="76.21" y="227.73" width="6.67" height="6.67" rx="2.42"/>
<rect x="129.24" y="227.73" width="6.67" height="6.67" rx="2.42"/>
<rect x="174.70" y="227.73" width="6.67" height="6.67" rx="2.42"/>
<rect x="189.85" y="227.73" width="6.67" height="6.67" rx="2.42"/>
<rect x="205.00" y="227.73" width="6.67" height="6.67" rx="2.42"/>
<rect x="212.58" y="227.73" width="6.67" height="6.67" rx="2.42"/>
<rect x="220.15" y="227.73" width="6.67" height="6.67" rx="2.42"/>
<rect x="227.73" y="227.73" width="6.67" height="6.67" rx="2.42"/>
<rect x="242.88" y="227.73" width="6.67" height="6.67" rx="2.42"/>
<rect x="83.79" y="235.30" width="6.67" height="6.67" rx="2.42"/>
<rect x="106.52" y="235.30" width="6.67" height="6.67" rx="2.42"/>
<rect x="121.67" y="235.30" width="6.67" height="6.67" rx="2.42"/>
<rect x="129.24" y="235.30" width="6.67" height="6.67" rx="2.42"/>
<rect x="136.82" y="235.30" width="6.67" height="6.67" rx="2.42"/>
<rect x="144.39" y="235.30" width="6.67" height="6.67" rx="2.42"/>
<rect x="159.55" y="235.30" width="6.67" height="6.67" rx="2.42"/>
<rect x="174.70" y="235.30" width="6.67" height="6.67" rx="2.42"/>
<rect x="182.27" y="235.30" width="6.67" height="6.67" rx="2.42"/>
<rect x="189.85" y="235.30" width="6.67" height="6.67" rx="2.42"/>
<rect x="197.42" y="235.30" width="6.67" height="6.67" rx="2.42"/>
<rect x="205.00" y="235.30" width="6.67" height="6.67" rx="2.42"/>
<rect x="220.15" y="235.30" width="6.67" height="6.67" rx="2.42"/>
<rect x="235.30" y="235.30" width="6.67" height="6.67" rx="2.42"/>
<rect x="68.64" y="242.88" width="6.67" height="6.67" rx="2.42"/>
<rect x="91.36" y="242.88" width="6.67" height="6.67" rx="2.42"/>
<rect x="106.52" y="242.88" width="6.67" height="6.67" rx="2.42"/>
<rect x="121.67" y="242.88" width="6.67" height="6.67" rx="2.42"/>
<rect x="129.24" y="242.88" width="6.67" height="6.67" rx="2.42"/>
<rect x="136.82" y="242.88" width="6.67" height="6.67" rx="2.42"/>
<rect x="167.12" y="242.88" width="6.67" height="6.67" rx="2.42"/>
<rect x="174.70" y="242.88" width="6.67" height="6.67" rx="2.42"/>
<rect x="182.27" y="242.88" width="6.67" height="6.67" rx="2.42"/>
<rect x="205.00" y="242.88" width="6.67" height="6.67" rx="2.42"/>
<rect x="212.58" y="242.88" width="6.67" height="6.67" rx="2.42"/>
<rect x="220.15" y="242.88" width="6.67" height="6.67" rx="2.42"/>
<rect x="227.73" y="242.88" width="6.67" height="6.67" rx="2.42"/>
<rect x="235.30" y="242.88" width="6.67" height="6.67" rx="2.42"/>
<rect x="242.88" y="242.88" width="6.67" height="6.67" rx="2.42"/>
<rect x="0.00" y="0.00" width="53.03" height="53.03" rx="12.12" fill="#e8e4d8"/>
<rect x="7.58" y="7.58" width="37.88" height="37.88" rx="8.33" fill="#0a0908"/>
<rect x="15.15" y="15.15" width="22.73" height="22.73" rx="5.30" fill="#e8e4d8"/>
<rect x="196.97" y="0.00" width="53.03" height="53.03" rx="12.12" fill="#e8e4d8"/>
<rect x="204.55" y="7.58" width="37.88" height="37.88" rx="8.33" fill="#0a0908"/>
<rect x="212.12" y="15.15" width="22.73" height="22.73" rx="5.30" fill="#e8e4d8"/>
<rect x="0.00" y="196.97" width="53.03" height="53.03" rx="12.12" fill="#e8e4d8"/>
<rect x="7.58" y="204.55" width="37.88" height="37.88" rx="8.33" fill="#0a0908"/>
<rect x="15.15" y="212.12" width="22.73" height="22.73" rx="5.30" fill="#e8e4d8"/>
<g>
<rect x="134.28" y="101.14" width="2.65" height="2.65"/>
<rect x="136.93" y="101.14" width="2.65" height="2.65"/>
<rect x="139.58" y="101.14" width="2.65" height="2.65"/>
<rect x="142.23" y="101.14" width="2.65" height="2.65"/>
<rect x="144.89" y="101.14" width="2.65" height="2.65"/>
<rect x="134.28" y="103.79" width="2.65" height="2.65"/>
<rect x="142.23" y="103.79" width="2.65" height="2.65"/>
<rect x="144.89" y="103.79" width="2.65" height="2.65"/>
<rect x="134.28" y="106.44" width="2.65" height="2.65"/>
<rect x="139.58" y="106.44" width="2.65" height="2.65"/>
<rect x="142.23" y="106.44" width="2.65" height="2.65"/>
<rect x="144.89" y="106.44" width="2.65" height="2.65"/>
<rect x="134.28" y="109.09" width="2.65" height="2.65"/>
<rect x="136.93" y="109.09" width="2.65" height="2.65"/>
<rect x="139.58" y="109.09" width="2.65" height="2.65"/>
<rect x="142.23" y="109.09" width="2.65" height="2.65"/>
<rect x="144.89" y="109.09" width="2.65" height="2.65"/>
<rect x="134.28" y="111.74" width="2.65" height="2.65"/>
<rect x="136.93" y="111.74" width="2.65" height="2.65"/>
<rect x="139.58" y="111.74" width="2.65" height="2.65"/>
<rect x="102.46" y="114.39" width="2.65" height="2.65"/>
<rect x="134.28" y="114.39" width="2.65" height="2.65"/>
<rect x="136.93" y="114.39" width="2.65" height="2.65"/>
<rect x="139.58" y="114.39" width="2.65" height="2.65"/>
<rect x="102.46" y="117.05" width="2.65" height="2.65"/>
<rect x="105.11" y="117.05" width="2.65" height="2.65"/>
<rect x="134.28" y="117.05" width="2.65" height="2.65"/>
<rect x="136.93" y="117.05" width="2.65" height="2.65"/>
<rect x="139.58" y="117.05" width="2.65" height="2.65"/>
<rect x="102.46" y="119.70" width="2.65" height="2.65"/>
<rect x="105.11" y="119.70" width="2.65" height="2.65"/>
<rect x="107.77" y="119.70" width="2.65" height="2.65"/>
<rect x="131.63" y="119.70" width="2.65" height="2.65"/>
<rect x="134.28" y="119.70" width="2.65" height="2.65"/>
<rect x="136.93" y="119.70" width="2.65" height="2.65"/>
<rect x="139.58" y="119.70" width="2.65" height="2.65"/>
<rect x="102.46" y="122.35" width="2.65" height="2.65"/>
<rect x="105.11" y="122.35" width="2.65" height="2.65"/>
<rect x="107.77" y="122.35" width="2.65" height="2.65"/>
<rect x="110.42" y="122.35" width="2.65" height="2.65"/>
<rect x="128.98" y="122.35" width="2.65" height="2.65"/>
<rect x="131.63" y="122.35" width="2.65" height="2.65"/>
<rect x="134.28" y="122.35" width="2.65" height="2.65"/>
<rect x="136.93" y="122.35" width="2.65" height="2.65"/>
<rect x="139.58" y="122.35" width="2.65" height="2.65"/>
<rect x="102.46" y="125.00" width="2.65" height="2.65"/>
<rect x="105.11" y="125.00" width="2.65" height="2.65"/>
<rect x="107.77" y="125.00" width="2.65" height="2.65"/>
<rect x="110.42" y="125.00" width="2.65" height="2.65"/>
<rect x="113.07" y="125.00" width="2.65" height="2.65"/>
<rect x="126.33" y="125.00" width="2.65" height="2.65"/>
<rect x="128.98" y="125.00" width="2.65" height="2.65"/>
<rect x="131.63" y="125.00" width="2.65" height="2.65"/>
<rect x="134.28" y="125.00" width="2.65" height="2.65"/>
<rect x="136.93" y="125.00" width="2.65" height="2.65"/>
<rect x="139.58" y="125.00" width="2.65" height="2.65"/>
<rect x="102.46" y="127.65" width="2.65" height="2.65"/>
<rect x="105.11" y="127.65" width="2.65" height="2.65"/>
<rect x="107.77" y="127.65" width="2.65" height="2.65"/>
<rect x="110.42" y="127.65" width="2.65" height="2.65"/>
<rect x="113.07" y="127.65" width="2.65" height="2.65"/>
<rect x="115.72" y="127.65" width="2.65" height="2.65"/>
<rect x="118.37" y="127.65" width="2.65" height="2.65"/>
<rect x="121.02" y="127.65" width="2.65" height="2.65"/>
<rect x="123.67" y="127.65" width="2.65" height="2.65"/>
<rect x="126.33" y="127.65" width="2.65" height="2.65"/>
<rect x="128.98" y="127.65" width="2.65" height="2.65"/>
<rect x="131.63" y="127.65" width="2.65" height="2.65"/>
<rect x="134.28" y="127.65" width="2.65" height="2.65"/>
<rect x="136.93" y="127.65" width="2.65" height="2.65"/>
<rect x="139.58" y="127.65" width="2.65" height="2.65"/>
<rect x="142.23" y="127.65" width="2.65" height="2.65"/>
<rect x="105.11" y="130.30" width="2.65" height="2.65"/>
<rect x="107.77" y="130.30" width="2.65" height="2.65"/>
<rect x="110.42" y="130.30" width="2.65" height="2.65"/>
<rect x="113.07" y="130.30" width="2.65" height="2.65"/>
<rect x="115.72" y="130.30" width="2.65" height="2.65"/>
<rect x="118.37" y="130.30" width="2.65" height="2.65"/>
<rect x="121.02" y="130.30" width="2.65" height="2.65"/>
<rect x="123.67" y="130.30" width="2.65" height="2.65"/>
<rect x="126.33" y="130.30" width="2.65" height="2.65"/>
<rect x="128.98" y="130.30" width="2.65" height="2.65"/>
<rect x="131.63" y="130.30" width="2.65" height="2.65"/>
<rect x="134.28" y="130.30" width="2.65" height="2.65"/>
<rect x="136.93" y="130.30" width="2.65" height="2.65"/>
<rect x="139.58" y="130.30" width="2.65" height="2.65"/>
<rect x="142.23" y="130.30" width="2.65" height="2.65"/>
<rect x="107.77" y="132.95" width="2.65" height="2.65"/>
<rect x="110.42" y="132.95" width="2.65" height="2.65"/>
<rect x="113.07" y="132.95" width="2.65" height="2.65"/>
<rect x="115.72" y="132.95" width="2.65" height="2.65"/>
<rect x="118.37" y="132.95" width="2.65" height="2.65"/>
<rect x="121.02" y="132.95" width="2.65" height="2.65"/>
<rect x="123.67" y="132.95" width="2.65" height="2.65"/>
<rect x="126.33" y="132.95" width="2.65" height="2.65"/>
<rect x="128.98" y="132.95" width="2.65" height="2.65"/>
<rect x="131.63" y="132.95" width="2.65" height="2.65"/>
<rect x="134.28" y="132.95" width="2.65" height="2.65"/>
<rect x="136.93" y="132.95" width="2.65" height="2.65"/>
<rect x="139.58" y="132.95" width="2.65" height="2.65"/>
<rect x="142.23" y="132.95" width="2.65" height="2.65"/>
<rect x="110.42" y="135.61" width="2.65" height="2.65"/>
<rect x="113.07" y="135.61" width="2.65" height="2.65"/>
<rect x="115.72" y="135.61" width="2.65" height="2.65"/>
<rect x="118.37" y="135.61" width="2.65" height="2.65"/>
<rect x="121.02" y="135.61" width="2.65" height="2.65"/>
<rect x="123.67" y="135.61" width="2.65" height="2.65"/>
<rect x="126.33" y="135.61" width="2.65" height="2.65"/>
<rect x="128.98" y="135.61" width="2.65" height="2.65"/>
<rect x="131.63" y="135.61" width="2.65" height="2.65"/>
<rect x="134.28" y="135.61" width="2.65" height="2.65"/>
<rect x="136.93" y="135.61" width="2.65" height="2.65"/>
<rect x="113.07" y="138.26" width="2.65" height="2.65"/>
<rect x="115.72" y="138.26" width="2.65" height="2.65"/>
<rect x="118.37" y="138.26" width="2.65" height="2.65"/>
<rect x="121.02" y="138.26" width="2.65" height="2.65"/>
<rect x="123.67" y="138.26" width="2.65" height="2.65"/>
<rect x="126.33" y="138.26" width="2.65" height="2.65"/>
<rect x="128.98" y="138.26" width="2.65" height="2.65"/>
<rect x="131.63" y="138.26" width="2.65" height="2.65"/>
<rect x="113.07" y="140.91" width="2.65" height="2.65"/>
<rect x="115.72" y="140.91" width="2.65" height="2.65"/>
<rect x="126.33" y="140.91" width="2.65" height="2.65"/>
<rect x="128.98" y="140.91" width="2.65" height="2.65"/>
<rect x="113.07" y="143.56" width="2.65" height="2.65"/>
<rect x="115.72" y="143.56" width="2.65" height="2.65"/>
<rect x="126.33" y="143.56" width="2.65" height="2.65"/>
<rect x="128.98" y="143.56" width="2.65" height="2.65"/>
<rect x="110.42" y="146.21" width="2.65" height="2.65"/>
<rect x="113.07" y="146.21" width="2.65" height="2.65"/>
<rect x="128.98" y="146.21" width="2.65" height="2.65"/>
<rect x="131.63" y="146.21" width="2.65" height="2.65"/>
</g>
</g>
  </g>
  <text x="702" y="548" fill="#8a857c" font-size="21" letter-spacing="1" font-family="Noto Sans JP, sans-serif">スキャン &#8599; PORTFOLIO</text>

  <line x1="95" y1="582" x2="905" y2="582" stroke="#33302b" stroke-width="1.5"/>

  <text x="95" y="612" fill="#8a857c" font-size="20" font-weight="600" letter-spacing="5" font-family="Archivo, sans-serif">WEB</text>
  <text x="95" y="646" fill="#e8e1d0" font-size="28" letter-spacing="1" font-family="JetBrains Mono, monospace">jirodavid.dev</text>
  <text x="430" y="612" fill="#8a857c" font-size="20" font-weight="600" letter-spacing="5" font-family="Archivo, sans-serif">MAIL</text>
  <text x="430" y="646" fill="#e8e1d0" font-size="28" letter-spacing="1" font-family="JetBrains Mono, monospace">jirodavid153@gmail.com</text>
</svg>
