<svg xmlns="http://www.w3.org/2000/svg" viewBox="0 0 1000 70" width="1000" height="70"><g><circle cx="130.0" cy="21.0" r="8.7" fill="#f5f0e1" stroke="#a9bd85" stroke-width="1"/><circle cx="143.3" cy="30.7" r="8.7" fill="#f5f0e1" stroke="#a9bd85" stroke-width="1"/><circle cx="138.2" cy="46.3" r="8.7" fill="#f5f0e1" stroke="#a9bd85" stroke-width="1"/><circle cx="121.8" cy="46.3" r="8.7" fill="#f5f0e1" stroke="#a9bd85" stroke-width="1"/><circle cx="116.7" cy="30.7" r="8.7" fill="#f5f0e1" stroke="#a9bd85" stroke-width="1"/><circle cx="130" cy="35" r="7.7" fill="#e9c66f"/></g><g transform="translate(265,28)"><g transform="rotate(45) scale(12)"><path d="M0,0 C -0.9,-0.55 -0.45,-1.2 0,-0.72 C 0.45,-1.2 0.9,-0.55 0,0 Z" fill="#8fae5d" stroke="#7d9d57" stroke-width="0.05"/></g><g transform="rotate(135) scale(12)"><path d="M0,0 C -0.9,-0.55 -0.45,-1.2 0,-0.72 C 0.45,-1.2 0.9,-0.55 0,0 Z" fill="#8fae5d" stroke="#7d9d57" stroke-width="0.05"/></g><g transform="rotate(225) scale(12)"><path d="M0,0 C -0.9,-0.55 -0.45,-1.2 0,-0.72 C 0.45,-1.2 0.9,-0.55 0,0 Z" fill="#8fae5d" stroke="#7d9d57" stroke-width="0.05"/></g><g transform="rotate(315) scale(12)"><path d="M0,0 C -0.9,-0.55 -0.45,-1.2 0,-0.72 C 0.45,-1.2 0.9,-0.55 0,0 Z" fill="#8fae5d" stroke="#7d9d57" stroke-width="0.05"/></g><path d="M0,2 q -6.0,19.2 2.4,28.8" stroke="#7d9d57" stroke-width="2.2" fill="none"/></g><g><ellipse cx="376.2" cy="42.2" rx="6.3" ry="4.8" fill="#eee7d2" stroke="#7d9d57" stroke-width="1.5"/><ellipse cx="407.8" cy="42.2" rx="6.3" ry="4.8" fill="#eee7d2" stroke="#7d9d57" stroke-width="1.5"/><ellipse cx="380.0" cy="28.8" rx="6.3" ry="4.8" fill="#eee7d2" stroke="#7d9d57" stroke-width="1.5"/><ellipse cx="406.2" cy="31.0" rx="6.3" ry="4.8" fill="#eee7d2" stroke="#7d9d57" stroke-width="1.5"/><circle cx="413.8" cy="33.2" r="7.5" fill="#eee7d2" stroke="#7d9d57" stroke-width="1.5"/><circle cx="416.4" cy="32.2" r="1.1" fill="#677d40"/><path d="M414.5,35.8 q 1.8,1.2 3.6,0" stroke="#677d40" stroke-width="1.3" fill="none" stroke-linecap="round"/><ellipse cx="392" cy="34" rx="19.5" ry="13.8" fill="#9cbf72" stroke="#7d9d57" stroke-width="2.4"/><ellipse cx="392" cy="34" rx="9.3" ry="6.9" fill="#7d9d57" opacity="0.45"/><line x1="392.0" y1="27.1" x2="392.0" y2="20.8" stroke="#7d9d57" stroke-width="1.6" opacity="0.6"/><line x1="400.8" y1="31.9" x2="409.8" y2="29.9" stroke="#7d9d57" stroke-width="1.6" opacity="0.6"/><line x1="397.5" y1="39.6" x2="403.0" y2="44.7" stroke="#7d9d57" stroke-width="1.6" opacity="0.6"/><line x1="386.5" y1="39.6" x2="381.0" y2="44.7" stroke="#7d9d57" stroke-width="1.6" opacity="0.6"/><line x1="383.2" y1="31.9" x2="374.2" y2="29.9" stroke="#7d9d57" stroke-width="1.6" opacity="0.6"/></g><g><circle cx="520.0" cy="21.0" r="8.7" fill="#f5f0e1" stroke="#a9bd85" stroke-width="1"/><circle cx="533.3" cy="30.7" r="8.7" fill="#f5f0e1" stroke="#a9bd85" stroke-width="1"/><circle cx="528.2" cy="46.3" r="8.7" fill="#f5f0e1" stroke="#a9bd85" stroke-width="1"/><circle cx="511.8" cy="46.3" r="8.7" fill="#f5f0e1" stroke="#a9bd85" stroke-width="1"/><circle cx="506.7" cy="30.7" r="8.7" fill="#f5f0e1" stroke="#a9bd85" stroke-width="1"/><circle cx="520" cy="35" r="7.7" fill="#e9c66f"/></g><g transform="translate(640,28)"><g transform="rotate(45) scale(12)"><path d="M0,0 C -0.9,-0.55 -0.45,-1.2 0,-0.72 C 0.45,-1.2 0.9,-0.55 0,0 Z" fill="#8fae5d" stroke="#7d9d57" stroke-width="0.05"/></g><g transform="rotate(135) scale(12)"><path d="M0,0 C -0.9,-0.55 -0.45,-1.2 0,-0.72 C 0.45,-1.2 0.9,-0.55 0,0 Z" fill="#8fae5d" stroke="#7d9d57" stroke-width="0.05"/></g><g transform="rotate(225) scale(12)"><path d="M0,0 C -0.9,-0.55 -0.45,-1.2 0,-0.72 C 0.45,-1.2 0.9,-0.55 0,0 Z" fill="#8fae5d" stroke="#7d9d57" stroke-width="0.05"/></g><g transform="rotate(315) scale(12)"><path d="M0,0 C -0.9,-0.55 -0.45,-1.2 0,-0.72 C 0.45,-1.2 0.9,-0.55 0,0 Z" fill="#8fae5d" stroke="#7d9d57" stroke-width="0.05"/></g><path d="M0,2 q -6.0,19.2 2.4,28.8" stroke="#7d9d57" stroke-width="2.2" fill="none"/></g><g><ellipse cx="751.2" cy="42.2" rx="6.3" ry="4.8" fill="#eee7d2" stroke="#7d9d57" stroke-width="1.5"/><ellipse cx="782.8" cy="42.2" rx="6.3" ry="4.8" fill="#eee7d2" stroke="#7d9d57" stroke-width="1.5"/><ellipse cx="755.0" cy="28.8" rx="6.3" ry="4.8" fill="#eee7d2" stroke="#7d9d57" stroke-width="1.5"/><ellipse cx="781.2" cy="31.0" rx="6.3" ry="4.8" fill="#eee7d2" stroke="#7d9d57" stroke-width="1.5"/><circle cx="788.8" cy="33.2" r="7.5" fill="#eee7d2" stroke="#7d9d57" stroke-width="1.5"/><circle cx="791.5" cy="32.2" r="1.1" fill="#677d40"/><path d="M789.5,35.8 q 1.8,1.2 3.6,0" stroke="#677d40" stroke-width="1.3" fill="none" stroke-linecap="round"/><ellipse cx="767" cy="34" rx="19.5" ry="13.8" fill="#9cbf72" stroke="#7d9d57" stroke-width="2.4"/><ellipse cx="767" cy="34" rx="9.3" ry="6.9" fill="#7d9d57" opacity="0.45"/><line x1="767.0" y1="27.1" x2="767.0" y2="20.8" stroke="#7d9d57" stroke-width="1.6" opacity="0.6"/><line x1="775.8" y1="31.9" x2="784.8" y2="29.9" stroke="#7d9d57" stroke-width="1.6" opacity="0.6"/><line x1="772.5" y1="39.6" x2="778.0" y2="44.7" stroke="#7d9d57" stroke-width="1.6" opacity="0.6"/><line x1="761.5" y1="39.6" x2="756.0" y2="44.7" stroke="#7d9d57" stroke-width="1.6" opacity="0.6"/><line x1="758.2" y1="31.9" x2="749.2" y2="29.9" stroke="#7d9d57" stroke-width="1.6" opacity="0.6"/></g><g><circle cx="910.0" cy="21.0" r="8.7" fill="#f5f0e1" stroke="#a9bd85" stroke-width="1"/><circle cx="923.3" cy="30.7" r="8.7" fill="#f5f0e1" stroke="#a9bd85" stroke-width="1"/><circle cx="918.2" cy="46.3" r="8.7" fill="#f5f0e1" stroke="#a9bd85" stroke-width="1"/><circle cx="901.8" cy="46.3" r="8.7" fill="#f5f0e1" stroke="#a9bd85" stroke-width="1"/><circle cx="896.7" cy="30.7" r="8.7" fill="#f5f0e1" stroke="#a9bd85" stroke-width="1"/><circle cx="910" cy="35" r="7.7" fill="#e9c66f"/></g><line x1="40" y1="35" x2="95" y2="35" stroke="#a9bd85" stroke-width="2" stroke-linecap="round" opacity="0.6"/><line x1="960" y1="35" x2="905" y2="35" stroke="#a9bd85" stroke-width="2" stroke-linecap="round" opacity="0.6"/></svg>