<svg xmlns="http://www.w3.org/2000/svg" viewBox="0 0 880 64" width="880" height="64">
  <defs>
    <g id="inv" fill="currentColor">
      <rect x="8" y="0" width="4" height="4"/><rect x="32" y="0" width="4" height="4"/>
      <rect x="12" y="4" width="4" height="4"/><rect x="28" y="4" width="4" height="4"/>
      <rect x="8" y="8" width="28" height="4"/>
      <rect x="4" y="12" width="8" height="4"/><rect x="16" y="12" width="12" height="4"/><rect x="32" y="12" width="8" height="4"/>
      <rect x="0" y="16" width="44" height="4"/>
      <rect x="0" y="20" width="4" height="4"/><rect x="8" y="20" width="28" height="4"/><rect x="40" y="20" width="4" height="4"/>
      <rect x="0" y="24" width="4" height="4"/><rect x="8" y="24" width="4" height="4"/><rect x="32" y="24" width="4" height="4"/><rect x="40" y="24" width="4" height="4"/>
      <rect x="12" y="28" width="8" height="4"/><rect x="24" y="28" width="8" height="4"/>
    </g>
    <path id="heart" fill="currentColor" d="M16 30 C16 30 1 21 1 10 C1 4 6 1 10 4 C12 6 16 10 16 10 C16 10 20 6 22 4 C26 1 31 4 31 10 C31 21 16 30 16 30 Z"/>
    <polygon id="star" fill="currentColor" points="16,2 20,12 31,12 22,19 25,30 16,23 7,30 10,19 1,12 12,12"/>
  </defs>

  <g transform="translate(70,16)">
    <use href="#inv"   x="0"   style="color:#c1272d"/>
    <use href="#inv"   x="84"  style="color:#e8e4d8"/>
    <use href="#heart" x="170" y="2" style="color:#c1272d"/>
    <use href="#star"  x="250" y="0" style="color:#e8e4d8"/>
    <use href="#inv"   x="330" style="color:#c1272d"/>
    <use href="#heart" x="420" y="2" style="color:#e8e4d8"/>
    <use href="#inv"   x="500" style="color:#c1272d"/>
    <use href="#star"  x="590" y="0" style="color:#c1272d"/>
    <use href="#inv"   x="670" style="color:#e8e4d8"/>
  </g>
</svg>
